<svg fill="none" height="67" viewBox="0 0 71 67" width="71" xmlns="http://www.w3.org/2000/svg"><path clip-rule="evenodd" d="m6.17248 0h57.88392c3.4035 0 6.1725 3.64562 6.1725 8.12667v43.52393c0 4.4812-2.7688 8.1266-6.1725 8.1266h-23.7981l-3.4978 6.14c-.8215 1.4422-2.4687 1.4453-3.292 0l-3.4977-6.14h-23.79832c-3.40351 0-6.17248-3.6454-6.17248-8.1266v-43.52393c0-4.48105 2.76897-8.12667 6.17248-8.12667z" fill="#00c2ff" fill-rule="evenodd"/><path d="m35.7899 43.7701c-.4578 0-.8918-.071-1.3022-.213-.3946-.1421-.7419-.3315-1.0418-.5683-.2998-.2525-.5366-.5445-.7102-.876-.1579-.3314-.2368-.6866-.2368-1.0654 0-.6629.2604-1.1996.7813-1.61.5367-.4104 1.247-.6156 2.1309-.6156.4104 0 .805.079 1.1838.2368.3788.1421.7103.3394.9944.5919.2999.2525.5366.5446.7103.876.1736.3315.2604.6787.2604 1.0418 0 .6945-.2526 1.239-.7576 1.6336-.4894.3788-1.1602.5682-2.0125.5682zm-8.1919-17.1178c-.3157.8997-.8524 1.3496-1.61 1.3496-.2999 0-.6077-.0632-.9234-.1895l-1.2075-.4971c-.8365-.3789-1.2548-.9076-1.2548-1.5863 0-.2842.0789-.6077.2368-.9708 3.1883-6.8187 8.0262-10.228 14.5134-10.228 1.4048 0 2.6912.2209 3.8592.6629 1.1838.4262 2.2019 1.0259 3.0542 1.7994.8524.7734 1.5153 1.6968 1.9888 2.7701.4893 1.0733.734 2.2492.734 3.5277 0 1.1522-.2131 2.2571-.6393 3.3147-.4261 1.0417-1.0417 2.0124-1.8467 2.9121-.7892.8997-1.7678 1.7126-2.9358 2.4387-1.1523.726-2.4624 1.3337-3.9303 1.823-.2841.0947-.5761.1421-.876.1421-.6471 0-1.2312-.2605-1.752-.7813l-.2841-.2841c-.4262-.3946-.6393-.7971-.6393-1.2075 0-.2999.1105-.5761.3315-.8287.2209-.2525.5524-.4656.9944-.6392 1.2785-.4893 2.3439-.9865 3.1962-1.4916.8682-.5051 1.5627-1.0181 2.0835-1.539.5367-.5209.9155-1.0654 1.1365-1.6336.2368-.5683.3551-1.1759.3551-1.8231 0-.6787-.1499-1.3101-.4498-1.8941-.2841-.584-.6787-1.0891-1.1838-1.5153-.4893-.4419-1.0733-.7813-1.7521-1.018-.6629-.2526-1.3732-.3788-2.1308-.3788-2.0204 0-3.7724.6313-5.2561 1.894-1.4837 1.2628-2.7543 3.22-3.8118 5.8717z" fill="#fff"/></svg>