<svg fill="none" height="1023" viewBox="0 0 1720 1023" width="1720" xmlns="http://www.w3.org/2000/svg" xmlns:xlink="http://www.w3.org/1999/xlink"><radialGradient id="a" cx="0" cy="0" gradientTransform="matrix(0 449.018 -860.654 0 864 392.621)" gradientUnits="userSpaceOnUse" r="1"><stop offset="0" stop-color="#c4c4c4"/><stop offset="1" stop-color="#c4c4c4" stop-opacity=".03"/></radialGradient><clipPath id="b"><path d="m0-97h1720v1120h-1720z"/></clipPath><mask id="c" height="1072" maskUnits="userSpaceOnUse" width="1729" x="-1" y="-98"><path d="m0-97h1727v1070h-1727z" fill="url(#a)" stroke="#6868f7"/></mask><g clip-path="url(#b)"><g mask="url(#c)" stroke="#00c2ff"><path d="m0 14.5h1728"/><path d="m0 70.5h1728"/><path d="m0 126.5h1728"/><path d="m0 182.5h1728"/><path d="m0 238.5h1728"/><path d="m0 294.5h1728"/><path d="m0 350.5h1728"/><path d="m0 406.5h1728"/><path d="m0 462.5h1728"/><path d="m0 518.5h1728"/><path d="m0 574.5h1728"/><path d="m0 630.5h1728"/><path d="m0 686.5h1728"/><path d="m0 742.5h1728"/><path d="m0 798.5h1728"/><path d="m0 854.5h1728"/><path d="m0 910.5h1728"/><path d="m0 966.5h1728"/><path d="m263.5-94v1117"/><path d="m343.5-94v1117"/><path d="m423.5-94v1117"/><path d="m503.5-94v1117"/><path d="m583.5-94v1117"/><path d="m663.5-94v1117"/><path d="m743.5-94v1117"/><path d="m823.5-94v1117"/><path d="m903.5-94v1117"/><path d="m983.5-94v1117"/><path d="m1063.5-94v1117"/><path d="m1143.5-94v1117"/><path d="m1223.5-94v1117"/><path d="m1303.5-94v1117"/><path d="m1383.5-94v1117"/><path d="m1463.5-94v1117"/><path d="m184.501-94v1117"/><path d="m1704.5-94v1117"/><path d="m104.501-94v1117"/><path d="m1624.5-94v1117"/><path d="m24.5011-94-.0001 1117"/><path d="m1544.5-94v1117"/></g></g></svg>