<svg fill="none" height="779" viewBox="0 0 654 779" width="654" xmlns="http://www.w3.org/2000/svg" xmlns:xlink="http://www.w3.org/1999/xlink"><clipPath id="a"><path d="m69 62h51v51h-51z"/></clipPath><path d="m0 0h654v779h-654z" fill="#2a2a2a"/><path d="m82 216h3.49254v5h-3.49254z" fill="#9c9c9c"/><path d="m85.4922 216h2.32836v5h-2.32836z" fill="#fff"/><path d="m87.8203 216h.58209v5h-.58209z" fill="#00c2ff"/><g fill="#fff"><path d="m116.896 199v-10.234h.157l7.236 10.234h1.973v-14.092h-2.129v10.254h-.156l-7.237-10.254h-1.972v14.092zm21.631-10.605h-2.099v6.22c0 1.709-.928 2.744-2.627 2.744-1.543 0-2.237-.839-2.237-2.597v-6.367h-2.099v6.884c0 2.491 1.308 3.926 3.662 3.926 1.611 0 2.695-.684 3.213-1.885h.166v1.68h2.021zm10.02 7.763c-.391.86-1.26 1.328-2.529 1.328-1.68 0-2.764-1.211-2.832-3.134v-.098h7.509v-.723c0-3.32-1.787-5.342-4.746-5.342-2.998 0-4.902 2.159-4.902 5.528 0 3.388 1.865 5.488 4.912 5.488 2.432 0 4.15-1.172 4.609-3.047zm-2.608-6.26c1.553 0 2.569 1.123 2.618 2.842h-5.371c.117-1.709 1.201-2.842 2.753-2.842zm12.022 5.528c0 2.363 1.748 3.916 4.297 3.916 2.715 0 4.355-1.612 4.355-4.414v-10.02h-2.187v10.01c0 1.611-.791 2.471-2.188 2.471-1.25 0-2.099-.791-2.129-1.963zm11.514-.186c.156 2.5 2.255 4.102 5.38 4.102 3.34 0 5.43-1.68 5.43-4.346 0-2.109-1.191-3.271-4.082-3.965l-1.553-.381c-1.836-.449-2.578-1.035-2.578-2.06 0-1.319 1.153-2.168 2.881-2.168 1.641 0 2.774.82 2.979 2.158h2.129c-.127-2.353-2.217-4.014-5.079-4.014-3.076 0-5.127 1.661-5.127 4.141 0 2.051 1.163 3.262 3.711 3.877l1.817.439c1.865.45 2.685 1.133 2.685 2.237 0 1.289-1.289 2.217-3.047 2.217-1.884 0-3.193-.87-3.378-2.237z"/><path d="m521.233 202h2.268v-12.683h-2.259l-3.313 2.329v2.136l3.155-2.232h.149zm8.789-5.66h1.591c1.565 0 2.514.782 2.514 2.056 0 1.231-1.028 2.057-2.487 2.057-1.468 0-2.461-.756-2.558-1.933h-2.171c.106 2.293 1.995 3.796 4.755 3.796 2.742 0 4.781-1.582 4.781-3.761 0-1.732-1.081-2.848-2.803-3.112v-.149c1.344-.36 2.302-1.371 2.311-2.9.009-1.82-1.512-3.393-4.21-3.393-2.751 0-4.474 1.556-4.588 3.779h2.127c.097-1.265.958-1.968 2.338-1.968 1.345 0 2.145.826 2.145 1.872 0 1.151-.897 1.96-2.198 1.96h-1.547zm11.365 5.66v-4.078l1.353-1.573 4.008 5.651h2.769l-5.168-7.154 4.79-5.529h-2.602l-5.001 5.863h-.149v-5.863h-2.268v12.683z"/><path d="m123.889 286h2.324l-5.088-14.092h-2.354l-5.087 14.092h2.246l1.299-3.809h5.371zm-4.053-11.602h.166l2.041 6.036h-4.258zm8.115 3.965c0 1.573.938 2.471 2.959 2.94l1.856.439c1.064.254 1.562.684 1.562 1.348 0 .869-.928 1.474-2.236 1.474-1.27 0-2.051-.517-2.315-1.347h-2.099c.185 1.845 1.836 2.988 4.365 2.988 2.539 0 4.404-1.338 4.404-3.31 0-1.543-.947-2.413-2.968-2.881l-1.768-.41c-1.152-.274-1.69-.684-1.69-1.338 0-.86.889-1.436 2.061-1.436 1.191 0 1.953.518 2.148 1.309h2.012c-.205-1.836-1.767-2.95-4.16-2.95-2.402 0-4.131 1.329-4.131 3.174zm11.69-5.644v2.705h-1.69v1.68h1.69v6.103c0 2.041.927 2.861 3.261 2.861.41 0 .801-.048 1.143-.107v-1.67c-.293.029-.479.049-.801.049-1.045 0-1.504-.498-1.504-1.641v-5.595h2.305v-1.68h-2.305v-2.705zm6.875 13.281h2.099v-6.338c0-1.494 1.123-2.519 2.715-2.519.371 0 .996.068 1.172.117v-1.973c-.225-.049-.625-.078-.938-.078-1.386 0-2.568.752-2.871 1.797h-.156v-1.611h-2.021zm12.226.205c3.106 0 5.01-2.08 5.01-5.508 0-3.427-1.914-5.508-5.01-5.508-3.105 0-5.019 2.09-5.019 5.508 0 3.428 1.904 5.508 5.019 5.508zm0-1.787c-1.826 0-2.851-1.357-2.851-3.721 0-2.363 1.025-3.73 2.851-3.73 1.817 0 2.852 1.367 2.852 3.73 0 2.354-1.035 3.721-2.852 3.721z"/><path d="m519.37 289.316c2.927 0 4.931-1.511 4.931-3.717 0-1.635-1.09-2.918-2.742-3.226v-.149c1.362-.343 2.223-1.424 2.223-2.795 0-1.995-1.828-3.428-4.403-3.428s-4.412 1.433-4.412 3.428c0 1.362.879 2.461 2.232 2.795v.149c-1.661.343-2.742 1.626-2.742 3.234 0 2.198 2.004 3.709 4.913 3.709zm.009-7.76c-1.292 0-2.18-.774-2.18-1.916 0-1.143.879-1.934 2.18-1.934 1.292 0 2.171.791 2.171 1.934 0 1.133-.888 1.916-2.171 1.916zm0 6.029c-1.529 0-2.584-.888-2.584-2.162 0-1.283 1.055-2.171 2.584-2.171 1.52 0 2.575.888 2.575 2.171 0 1.274-1.046 2.162-2.575 2.162zm13.271 1.415h2.171v-2.435h1.714v-1.872h-1.714v-8.376h-3.199c-1.723 2.62-3.524 5.537-5.168 8.394v1.854h6.196zm-4.095-4.386c1.239-2.153 2.707-4.5 4.007-6.486h.124v6.618h-4.131zm12.832 4.386v-4.078l1.353-1.573 4.008 5.651h2.769l-5.168-7.154 4.79-5.529h-2.602l-5.001 5.863h-.149v-5.863h-2.268v12.683z"/></g><path d="m82 303h58v5h-58z" fill="#9c9c9c"/><path d="m140 303h10v5h-10z" fill="#fff"/><path d="m150 303h16v5h-16z" fill="#00c2ff"/><path d="m116.896 373v-10.234h.157l7.236 10.234h1.973v-14.092h-2.129v10.254h-.156l-7.237-10.254h-1.972v14.092zm21.631-10.605h-2.099v6.22c0 1.709-.928 2.744-2.627 2.744-1.543 0-2.237-.839-2.237-2.597v-6.367h-2.099v6.884c0 2.491 1.308 3.926 3.662 3.926 1.611 0 2.695-.684 3.213-1.885h.166v1.68h2.021zm7.012 6.806 2.324 3.819h2.412l-3.545-5.362 3.506-5.244h-2.343l-2.266 3.789h-.166l-2.285-3.789h-2.451l3.554 5.322-3.525 5.284h2.305l2.324-3.819zm7.676-9.482v2.705h-1.69v1.68h1.69v6.103c0 2.041.928 2.861 3.262 2.861.41 0 .8-.048 1.142-.107v-1.67c-.293.029-.478.049-.801.049-1.045 0-1.504-.498-1.504-1.641v-5.595h2.305v-1.68h-2.305v-2.705zm11.621 9.707c0 2.363 1.748 3.916 4.297 3.916 2.715 0 4.355-1.612 4.355-4.414v-10.02h-2.187v10.01c0 1.611-.791 2.471-2.188 2.471-1.25 0-2.099-.791-2.129-1.963zm11.514-.186c.156 2.5 2.255 4.102 5.38 4.102 3.34 0 5.43-1.68 5.43-4.346 0-2.109-1.191-3.271-4.082-3.965l-1.553-.381c-1.836-.449-2.578-1.035-2.578-2.06 0-1.319 1.153-2.168 2.881-2.168 1.641 0 2.774.82 2.979 2.158h2.129c-.127-2.353-2.217-4.014-5.079-4.014-3.076 0-5.127 1.661-5.127 4.141 0 2.051 1.163 3.262 3.711 3.877l1.817.439c1.865.45 2.685 1.133 2.685 2.237 0 1.289-1.289 2.217-3.047 2.217-1.884 0-3.193-.87-3.378-2.237z" fill="#fff"/><path d="m508.085 376.316c2.769 0 4.623-1.819 4.623-4.473 0-2.549-1.758-4.175-3.929-4.175-1.292 0-2.223.439-2.786 1.222h-.149l.351-3.709h5.836v-1.864h-7.602l-.695 7.374h2.057c.431-.835 1.266-1.336 2.347-1.336 1.397 0 2.382 1.011 2.382 2.523 0 1.556-.985 2.593-2.444 2.593-1.292 0-2.267-.783-2.408-1.969h-2.118c.096 2.224 1.916 3.814 4.535 3.814zm9.967-5.976h1.591c1.564 0 2.513.782 2.513 2.056 0 1.231-1.028 2.057-2.487 2.057-1.468 0-2.461-.756-2.558-1.933h-2.171c.106 2.293 1.996 3.796 4.755 3.796 2.743 0 4.782-1.582 4.782-3.761 0-1.732-1.081-2.848-2.804-3.112v-.149c1.345-.36 2.303-1.371 2.311-2.9.009-1.82-1.511-3.393-4.21-3.393-2.751 0-4.473 1.556-4.587 3.779h2.126c.097-1.265.958-1.968 2.338-1.968 1.345 0 2.145.826 2.145 1.872 0 1.151-.897 1.96-2.197 1.96h-1.547zm13.254 5.968c3.225 0 5.141-2.523 5.141-6.803 0-4.201-2.039-6.504-5.071-6.504-2.76 0-4.711 1.854-4.711 4.447 0 2.435 1.758 4.21 4.175 4.21 1.485 0 2.689-.685 3.287-1.889h.149c-.026 2.979-1.089 4.684-2.944 4.684-1.09 0-1.96-.598-2.232-1.564h-2.259c.369 2.065 2.144 3.419 4.465 3.419zm.079-6.399c-1.477 0-2.496-1.037-2.496-2.531 0-1.433 1.072-2.531 2.505-2.531 1.432 0 2.504 1.116 2.504 2.575 0 1.441-1.045 2.487-2.513 2.487zm10.002 6.091v-4.078l1.353-1.573 4.008 5.651h2.769l-5.168-7.154 4.79-5.529h-2.602l-5.001 5.863h-.149v-5.863h-2.268v12.683z" fill="#fff"/><path d="m82 390h16.2985v5h-16.2985z" fill="#9c9c9c"/><path d="m98.2986 390h1.16418v5h-1.16418z" fill="#fff"/><path d="m99.4629 390h313.746v5h-313.746z" fill="#00c2ff"/><path d="m116.896 460v-10.234h.157l7.236 10.234h1.973v-14.092h-2.129v10.254h-.156l-7.237-10.254h-1.972v14.092zm19.639-2.842c-.39.86-1.26 1.328-2.529 1.328-1.68 0-2.764-1.211-2.832-3.134v-.098h7.51v-.723c0-3.32-1.788-5.342-4.746-5.342-2.999 0-4.903 2.159-4.903 5.528 0 3.388 1.865 5.488 4.912 5.488 2.432 0 4.151-1.172 4.61-3.047zm-2.607-6.26c1.552 0 2.568 1.123 2.617 2.842h-5.371c.117-1.709 1.201-2.842 2.754-2.842zm10.83 5.303 2.324 3.819h2.412l-3.545-5.362 3.506-5.244h-2.344l-2.265 3.789h-.166l-2.285-3.789h-2.452l3.555 5.322-3.525 5.284h2.304l2.325-3.819zm7.676-9.482v2.705h-1.69v1.68h1.69v6.103c0 2.041.927 2.861 3.261 2.861.41 0 .801-.048 1.143-.107v-1.67c-.293.029-.479.049-.801.049-1.045 0-1.504-.498-1.504-1.641v-5.595h2.305v-1.68h-2.305v-2.705zm11.621 9.707c0 2.363 1.748 3.916 4.297 3.916 2.714 0 4.355-1.612 4.355-4.414v-10.02h-2.187v10.01c0 1.611-.791 2.471-2.188 2.471-1.25 0-2.1-.791-2.129-1.963zm11.513-.186c.157 2.5 2.256 4.102 5.381 4.102 3.34 0 5.43-1.68 5.43-4.346 0-2.109-1.191-3.271-4.082-3.965l-1.553-.381c-1.836-.449-2.578-1.035-2.578-2.06 0-1.319 1.152-2.168 2.881-2.168 1.641 0 2.773.82 2.978 2.158h2.129c-.127-2.353-2.216-4.014-5.078-4.014-3.076 0-5.127 1.661-5.127 4.141 0 2.051 1.162 3.262 3.711 3.877l1.817.439c1.865.45 2.685 1.133 2.685 2.237 0 1.289-1.289 2.217-3.047 2.217-1.885 0-3.193-.87-3.379-2.237z" fill="#fff"/><path d="m508.929 463.308c2.759 0 4.711-1.846 4.711-4.448 0-2.434-1.767-4.21-4.175-4.21-1.494 0-2.69.686-3.287 1.89h-.15c.018-3.032 1.117-4.685 2.997-4.685 1.125 0 1.952.581 2.171 1.574h2.268c-.317-2.048-2.048-3.428-4.483-3.428-3.146 0-5.124 2.531-5.124 6.803 0 4.342 2.136 6.504 5.072 6.504zm-.018-1.846c-1.432 0-2.505-1.116-2.505-2.584 0-1.45 1.037-2.496 2.514-2.496 1.476 0 2.496 1.046 2.496 2.54 0 1.441-1.081 2.54-2.505 2.54zm11.901 1.854c2.926 0 4.93-1.511 4.93-3.717 0-1.635-1.09-2.918-2.742-3.226v-.149c1.362-.343 2.224-1.424 2.224-2.795 0-1.995-1.828-3.428-4.404-3.428-2.575 0-4.412 1.433-4.412 3.428 0 1.362.879 2.461 2.233 2.795v.149c-1.662.343-2.743 1.626-2.743 3.234 0 2.198 2.004 3.709 4.914 3.709zm.008-7.76c-1.292 0-2.179-.774-2.179-1.916 0-1.143.879-1.934 2.179-1.934 1.292 0 2.171.791 2.171 1.934 0 1.133-.887 1.916-2.171 1.916zm0 6.029c-1.529 0-2.584-.888-2.584-2.162 0-1.283 1.055-2.171 2.584-2.171 1.521 0 2.576.888 2.576 2.171 0 1.274-1.046 2.162-2.576 2.162zm7.946 1.415h2.373l5.423-10.793v-1.89h-8.825v1.855h6.539v.14zm12.621 0v-4.078l1.353-1.573 4.008 5.651h2.769l-5.168-7.154 4.79-5.529h-2.602l-5.001 5.863h-.149v-5.863h-2.268v12.683z" fill="#fff"/><path d="m82 477h45.403v5h-45.403z" fill="#9c9c9c"/><path d="m127.402 477h11.0597v5h-11.0597z" fill="#fff"/><path d="m138.463 477h343.433v5h-343.433z" fill="#00c2ff"/><path d="m126.789 541.453v-1.748h-5.781v1.768h3.633v.312c-.02 2.158-1.602 3.613-3.907 3.613-2.646 0-4.306-2.08-4.306-5.459 0-3.33 1.65-5.429 4.258-5.429 1.923 0 3.261.947 3.808 2.695h2.197c-.478-2.842-2.802-4.639-6.005-4.639-3.946 0-6.495 2.901-6.495 7.383 0 4.541 2.52 7.393 6.514 7.393 3.691 0 6.084-2.315 6.084-5.889zm5.674 5.723c1.396 0 2.558-.606 3.193-1.68h.166v1.504h2.022v-7.256c0-2.226-1.504-3.555-4.17-3.555-2.412 0-4.131 1.163-4.346 2.95h2.031c.235-.772 1.045-1.211 2.217-1.211 1.436 0 2.178.654 2.178 1.816v.928l-2.881.176c-2.529.156-3.955 1.259-3.955 3.164 0 1.933 1.494 3.164 3.545 3.164zm.537-1.69c-1.143 0-1.973-.576-1.973-1.562 0-.967.664-1.485 2.129-1.582l2.598-.176v.918c0 1.367-1.172 2.402-2.754 2.402zm8.574-11.767v2.705h-1.689v1.68h1.689v6.103c0 2.041.928 2.861 3.262 2.861.41 0 .801-.048 1.143-.107v-1.67c-.293.029-.479.049-.801.049-1.045 0-1.504-.498-1.504-1.641v-5.595h2.305v-1.68h-2.305v-2.705zm6.475 5.644c0 1.573.937 2.471 2.959 2.94l1.855.439c1.065.254 1.563.684 1.563 1.348 0 .869-.928 1.474-2.237 1.474-1.269 0-2.05-.517-2.314-1.347h-2.1c.186 1.845 1.836 2.988 4.366 2.988 2.539 0 4.404-1.338 4.404-3.31 0-1.543-.947-2.413-2.969-2.881l-1.767-.41c-1.153-.274-1.69-.684-1.69-1.338 0-.86.889-1.436 2.061-1.436 1.191 0 1.953.518 2.148 1.309h2.012c-.205-1.836-1.768-2.95-4.16-2.95-2.403 0-4.131 1.329-4.131 3.174zm16.66 7.813c2.686 0 4.395-2.139 4.395-5.479 0-3.369-1.7-5.488-4.395-5.488-1.455 0-2.705.713-3.271 1.865h-.167v-5.84h-2.099v14.766h2.021v-1.68h.157c.634 1.172 1.875 1.856 3.359 1.856zm-.605-9.17c1.777 0 2.841 1.396 2.841 3.691s-1.064 3.682-2.841 3.682c-1.768 0-2.862-1.406-2.872-3.682.01-2.275 1.114-3.691 2.872-3.691zm8.173 12.842c2.168 0 3.174-.811 4.082-3.36l3.965-11.093h-2.226l-2.657 8.496h-.166l-2.666-8.496h-2.285l3.848 10.634-.156.547c-.362 1.123-.928 1.543-1.924 1.543-.196 0-.518-.01-.684-.039v1.719c.196.029.694.049.869.049zm14.942-7.422c0 2.363 1.748 3.916 4.297 3.916 2.714 0 4.355-1.612 4.355-4.414v-10.02h-2.187v10.01c0 1.611-.791 2.471-2.188 2.471-1.25 0-2.1-.791-2.129-1.963zm11.513-.186c.157 2.5 2.256 4.102 5.381 4.102 3.34 0 5.43-1.68 5.43-4.346 0-2.109-1.191-3.271-4.082-3.965l-1.553-.381c-1.836-.449-2.578-1.035-2.578-2.06 0-1.319 1.152-2.168 2.881-2.168 1.641 0 2.773.82 2.978 2.158h2.129c-.127-2.353-2.216-4.014-5.078-4.014-3.076 0-5.127 1.661-5.127 4.141 0 2.051 1.162 3.262 3.711 3.877l1.817.439c1.865.45 2.685 1.133 2.685 2.237 0 1.289-1.289 2.217-3.047 2.217-1.884 0-3.193-.87-3.379-2.237z" fill="#fff"/><path d="m508.384 550.308c2.76 0 4.711-1.846 4.711-4.448 0-2.434-1.767-4.21-4.175-4.21-1.494 0-2.69.686-3.287 1.89h-.15c.018-3.032 1.117-4.685 2.997-4.685 1.125 0 1.952.581 2.171 1.574h2.268c-.316-2.048-2.048-3.428-4.482-3.428-3.147 0-5.125 2.531-5.125 6.803 0 4.342 2.136 6.504 5.072 6.504zm-.018-1.846c-1.432 0-2.505-1.116-2.505-2.584 0-1.45 1.037-2.496 2.514-2.496s2.496 1.046 2.496 2.54c0 1.441-1.081 2.54-2.505 2.54zm11.602 1.846c3.225 0 5.141-2.523 5.141-6.803 0-4.201-2.039-6.504-5.071-6.504-2.76 0-4.711 1.854-4.711 4.447 0 2.435 1.758 4.21 4.175 4.21 1.485 0 2.689-.685 3.287-1.889h.149c-.026 2.979-1.089 4.684-2.944 4.684-1.09 0-1.96-.598-2.232-1.564h-2.259c.369 2.065 2.144 3.419 4.465 3.419zm.079-6.399c-1.477 0-2.496-1.037-2.496-2.531 0-1.433 1.072-2.531 2.505-2.531 1.432 0 2.505 1.116 2.505 2.575 0 1.441-1.046 2.487-2.514 2.487zm7.374-2.839h2.127c0-1.336.879-2.25 2.259-2.25 1.327 0 2.118.888 2.118 2.039 0 .967-.387 1.574-1.987 3.191l-4.394 4.421v1.529h8.807v-1.881h-5.731v-.149l2.725-2.681c2.179-2.136 2.821-3.164 2.821-4.641 0-2.109-1.714-3.647-4.236-3.647-2.646 0-4.509 1.67-4.509 4.069zm13.966 8.93v-4.078l1.353-1.573 4.008 5.651h2.769l-5.168-7.154 4.79-5.529h-2.602l-5.001 5.863h-.149v-5.863h-2.268v12.683z" fill="#fff"/><path d="m82 564h71.0149v5h-71.0149z" fill="#9c9c9c"/><path d="m153.015 564h8.14925v5h-8.14925z" fill="#fff"/><path d="m161.164 564h323.642v5h-323.642z" fill="#00c2ff"/><path d="m120.529 634v-12.207h4.424v-1.885h-11.045v1.885h4.434v12.207zm7.813.176c1.396 0 2.558-.606 3.193-1.68h.166v1.504h2.022v-7.256c0-2.226-1.504-3.555-4.17-3.555-2.412 0-4.131 1.163-4.346 2.95h2.031c.235-.772 1.045-1.211 2.217-1.211 1.436 0 2.178.654 2.178 1.816v.928l-2.881.176c-2.529.156-3.955 1.259-3.955 3.164 0 1.933 1.494 3.164 3.545 3.164zm.537-1.69c-1.143 0-1.973-.576-1.973-1.562 0-.967.664-1.485 2.129-1.582l2.598-.176v.918c0 1.367-1.172 2.402-2.754 2.402zm8.916-10.986c.732 0 1.328-.596 1.328-1.318 0-.733-.596-1.328-1.328-1.328-.733 0-1.328.595-1.328 1.328 0 .722.595 1.318 1.328 1.318zm-1.045 12.5h2.09v-10.605h-2.09zm5.273 0h2.1v-14.766h-2.1zm19.102-10.605h-2.1l-1.894 8.183h-.166l-2.188-8.183h-2.011l-2.188 8.183h-.156l-1.904-8.183h-2.129l2.929 10.605h2.159l2.187-7.91h.166l2.197 7.91h2.178zm3.252-1.895c.732 0 1.328-.596 1.328-1.318 0-.733-.596-1.328-1.328-1.328s-1.328.595-1.328 1.328c0 .722.596 1.318 1.328 1.318zm-1.045 12.5h2.09v-10.605h-2.09zm5.176 0h2.099v-6.221c0-1.709.987-2.763 2.539-2.763 1.553 0 2.295.859 2.295 2.617v6.367h2.1v-6.865c0-2.53-1.309-3.946-3.682-3.946-1.601 0-2.656.713-3.173 1.885h-.157v-1.679h-2.021zm15.879.176c1.465 0 2.705-.694 3.34-1.856h.166v1.68h2.011v-14.766h-2.099v5.84h-.157c-.576-1.162-1.806-1.865-3.261-1.865-2.686 0-4.414 2.139-4.414 5.479 0 3.359 1.709 5.488 4.414 5.488zm.595-9.17c1.758 0 2.862 1.426 2.862 3.691 0 2.285-1.094 3.682-2.862 3.682-1.777 0-2.841-1.377-2.841-3.682 0-2.295 1.074-3.691 2.841-3.691zm19.571 9.336c3.144 0 5.459-1.807 5.849-4.551h-2.177c-.391 1.602-1.807 2.607-3.672 2.607-2.539 0-4.121-2.089-4.121-5.439s1.582-5.449 4.111-5.449c1.855 0 3.271 1.113 3.682 2.861h2.177c-.351-2.822-2.754-4.805-5.859-4.805-3.916 0-6.348 2.832-6.348 7.393 0 4.551 2.442 7.383 6.358 7.383zm8.066-4.102c.156 2.5 2.256 4.102 5.381 4.102 3.34 0 5.43-1.68 5.43-4.346 0-2.109-1.192-3.271-4.082-3.965l-1.553-.381c-1.836-.449-2.578-1.035-2.578-2.06 0-1.319 1.152-2.168 2.881-2.168 1.64 0 2.773.82 2.978 2.158h2.129c-.127-2.353-2.217-4.014-5.078-4.014-3.076 0-5.127 1.661-5.127 4.141 0 2.051 1.162 3.262 3.711 3.877l1.816.439c1.866.45 2.686 1.133 2.686 2.237 0 1.289-1.289 2.217-3.047 2.217-1.885 0-3.193-.87-3.379-2.237zm13.027 0c.157 2.5 2.256 4.102 5.381 4.102 3.34 0 5.43-1.68 5.43-4.346 0-2.109-1.191-3.271-4.082-3.965l-1.553-.381c-1.836-.449-2.578-1.035-2.578-2.06 0-1.319 1.152-2.168 2.881-2.168 1.641 0 2.773.82 2.979 2.158h2.128c-.127-2.353-2.216-4.014-5.078-4.014-3.076 0-5.127 1.661-5.127 4.141 0 2.051 1.162 3.262 3.711 3.877l1.817.439c1.865.45 2.685 1.133 2.685 2.237 0 1.289-1.289 2.217-3.047 2.217-1.884 0-3.193-.87-3.379-2.237z" fill="#fff"/><path d="m507.452 637.316c2.927 0 4.931-1.511 4.931-3.717 0-1.635-1.09-2.918-2.742-3.226v-.149c1.362-.343 2.223-1.424 2.223-2.795 0-1.995-1.828-3.428-4.403-3.428s-4.412 1.433-4.412 3.428c0 1.362.879 2.461 2.232 2.795v.149c-1.661.343-2.742 1.626-2.742 3.234 0 2.198 2.004 3.709 4.913 3.709zm.009-7.76c-1.292 0-2.18-.774-2.18-1.916 0-1.143.879-1.934 2.18-1.934 1.292 0 2.171.791 2.171 1.934 0 1.133-.888 1.916-2.171 1.916zm0 6.029c-1.529 0-2.584-.888-2.584-2.162 0-1.283 1.055-2.171 2.584-2.171 1.52 0 2.575.888 2.575 2.171 0 1.274-1.046 2.162-2.575 2.162zm11.997 1.731c3.032 0 4.834-2.452 4.834-6.653 0-4.21-1.828-6.662-4.834-6.662-3.015 0-4.843 2.452-4.843 6.645 0 4.209 1.802 6.67 4.843 6.67zm0-1.837c-1.608 0-2.549-1.669-2.549-4.833 0-3.138.958-4.799 2.549-4.799s2.54 1.652 2.54 4.799c0 3.172-.932 4.833-2.54 4.833zm13.192 1.521h2.171v-2.435h1.714v-1.872h-1.714v-8.376h-3.199c-1.723 2.62-3.524 5.537-5.168 8.394v1.854h6.196zm-4.095-4.386c1.239-2.153 2.707-4.5 4.007-6.486h.124v6.618h-4.131zm12.832 4.386v-4.078l1.353-1.573 4.008 5.651h2.769l-5.168-7.154 4.79-5.529h-2.602l-5.001 5.863h-.149v-5.863h-2.268v12.683z" fill="#fff"/><path d="m82 651h28.5224v5h-28.5224z" fill="#9c9c9c"/><path d="m110.522 651h51.2239v5h-51.2239z" fill="#fff"/><path d="m161.746 651h388.254v5h-388.254z" fill="#00c2ff"/><path d="m94 679v-555" opacity=".3" stroke="#fff" stroke-width="2"/><path d="m133.209 102v-15.7808h-.079l-4.917 3.375v-3.1245l4.97-3.4936h3.362v19.0239zm16.862 0v-3.6519h-9.492v-2.9003c1.648-3.0982 3.771-6.4732 7.897-12.4717h4.838v12.5771h2.584v2.7949h-2.584v3.6519zm-6.433-6.46v.0923h6.486v-10.125h-.053c-3.071 4.4033-4.917 7.2642-6.433 10.0327zm18.101 6.46h-3.402v-19.0239h3.402v8.8989h.118l7.594-8.8989h3.916l-7.33 8.4375 7.897 10.5864h-4.14l-6.183-8.3057-1.872 2.1885zm32.748-9.2944h-12.986v-2.7554h12.986zm0 6.1699h-12.986v-2.7554h12.986zm21.159.2505v2.874h-12.036v-19.0239h3.401v16.1499zm3.824-13.21c-1.002 0-1.806-.8042-1.806-1.7798 0-.9887.804-1.7798 1.806-1.7798s1.793.7911 1.793 1.7798c0 .9756-.791 1.7798-1.793 1.7798zm-1.635 16.084v-13.9746h3.283v13.9746zm6.038 0v-13.9746h3.151v2.4258h.066c.606-1.6216 2.083-2.6895 3.981-2.6895 1.978 0 3.388 1.0152 3.903 2.8081h.079c.672-1.727 2.333-2.8081 4.35-2.8081 2.756 0 4.562 1.8589 4.562 4.6538v9.5845h-3.283v-8.7803c0-1.7138-.896-2.6894-2.505-2.6894-1.582 0-2.663 1.1601-2.663 2.8344v8.6353h-3.19v-8.9517c0-1.5556-.949-2.518-2.479-2.518-1.582 0-2.689 1.226-2.689 2.9135v8.5562zm24.442-16.084c-1.002 0-1.806-.8042-1.806-1.7798 0-.9887.804-1.7798 1.806-1.7798s1.793.7911 1.793 1.7798c0 .9756-.791 1.7798-1.793 1.7798zm-1.634 16.084v-13.9746h3.282v13.9746zm6.947-17.2441h3.283v3.2695h2.637v2.5312h-2.637v7.2642c0 1.147.527 1.6743 1.688 1.6743.303 0 .725-.0263.936-.0659v2.5048c-.356.079-1.002.132-1.701.132-3.019 0-4.206-1.068-4.206-3.7838v-7.7256h-2.003v-2.5312h2.003zm14.476 17.2441v-11.4434h-1.912v-2.4917h1.912v-1.2392c0-2.7158 1.292-3.9946 4.324-3.9946.646 0 1.358.0659 1.767.145v2.2939c-.277-.0395-.659-.0791-1.042-.0791-1.252 0-1.819.5933-1.819 1.7271v1.1469h2.795v2.4917h-2.742v11.4434zm13.869.277c-4.1 0-6.763-2.7291-6.763-7.2643 0-4.5088 2.689-7.2773 6.763-7.2773s6.763 2.7553 6.763 7.2773c0 4.5352-2.663 7.2643-6.763 7.2643zm0-2.5973c2.083 0 3.428-1.6875 3.428-4.667 0-2.9663-1.345-4.667-3.428-4.667-2.07 0-3.428 1.7007-3.428 4.667 0 2.9795 1.345 4.667 3.428 4.667zm8.873 2.3203v-13.9746h3.151v2.439h.065c.475-1.7007 1.701-2.6763 3.349-2.6763.422 0 .791.0791 1.028.1318v2.9663c-.276-.1054-.777-.1845-1.331-.1845-1.859 0-2.98 1.1997-2.98 3.164v8.1343zm15.596-17.2441h3.283v3.2695h2.636v2.5312h-2.636v7.2642c0 1.147.527 1.6743 1.687 1.6743.303 0 .725-.0263.936-.0659v2.5048c-.356.079-1.002.132-1.701.132-3.019 0-4.205-1.068-4.205-3.7838v-7.7256h-2.004v-2.5312h2.004zm8.161 17.2441v-13.9746h3.15v2.439h.066c.475-1.7007 1.701-2.6763 3.349-2.6763.422 0 .791.0791 1.028.1318v2.9663c-.277-.1054-.778-.1845-1.331-.1845-1.859 0-2.98 1.1997-2.98 3.164v8.1343zm21.673-13.9746v13.9746h-3.164v-2.4258h-.066c-.738 1.7008-2.149 2.6758-4.271 2.6758-3.032 0-4.957-1.964-4.957-5.1938v-9.0308h3.283v8.3716c0 2.0039.975 3.0849 2.821 3.0849 1.898 0 3.072-1.3447 3.072-3.375v-8.0815zm2.782 13.9746v-19.0239h3.283v19.0239zm7.647 5.194c-.198 0-1.121-.013-1.292-.052v-2.598c.171.04.751.053.949.053 1.358 0 2.056-.514 2.412-1.806 0-.04.211-.738.198-.778l-4.97-13.9876h3.586l3.283 11.1797h.066l3.295-11.1797h3.455l-5.063 14.5286c-1.186 3.467-2.729 4.64-5.919 4.64zm18.852-5.194v-11.4434h-1.911v-2.4917h1.911v-1.2392c0-2.7158 1.292-3.9946 4.324-3.9946.646 0 1.358.0659 1.767.145v2.2939c-.277-.0395-.659-.0791-1.042-.0791-1.252 0-1.819.5933-1.819 1.7271v1.1469h2.795v2.4917h-2.742v11.4434zm11.536.224c-2.703 0-4.667-1.701-4.667-4.2186 0-2.4785 1.911-3.9683 5.313-4.1792l3.691-.211v-1.0019c0-1.4634-.989-2.3071-2.61-2.3071-1.556 0-2.545.7514-2.756 1.9116h-3.045c.145-2.6104 2.373-4.4824 5.933-4.4824 3.467 0 5.721 1.8325 5.721 4.6406v9.624h-3.164v-2.228h-.066c-.804 1.516-2.557 2.452-4.35 2.452zm.989-2.4784c1.858 0 3.348-1.2393 3.348-2.9268v-1.0678l-3.23.1977c-1.582.1055-2.492.8174-2.492 1.9248 0 1.147.95 1.8721 2.374 1.8721zm8.991-7.7124c0-2.5576 2.228-4.2978 5.603-4.2978 3.401 0 5.563 1.8325 5.642 4.4824h-3.058c-.132-1.2657-1.068-2.0699-2.584-2.0699-1.45 0-2.413.6856-2.413 1.7139 0 .8042.58 1.3579 2.044 1.6875l2.32.5142c2.9.646 4.021 1.7666 4.021 3.7969 0 2.6366-2.426 4.4166-5.854 4.4166-3.651 0-5.814-1.74-6.077-4.443h3.23c.25 1.3579 1.186 2.0434 2.847 2.0434 1.596 0 2.584-.6591 2.584-1.7006 0-.8438-.501-1.3184-1.964-1.648l-2.32-.5142c-2.677-.5932-4.021-1.9116-4.021-3.9814zm14.581-7.2773h3.283v3.2695h2.636v2.5312h-2.636v7.2642c0 1.147.527 1.6743 1.687 1.6743.303 0 .725-.0263.936-.0659v2.5048c-.356.079-1.002.132-1.701.132-3.019 0-4.205-1.068-4.205-3.7838v-7.7256h-2.004v-2.5312h2.004z" fill="#fff"/><g clip-path="url(#a)"><path d="m106.204 78.3167c-1.063-1.1603-2.715-2.7265-3.418.8099-.239 1.2023-.797 2.1292-1.276 2.8755-.516-2.611-2.0681-5.3135-3.5305-7.1356-.5473-.6818-2.4891-3.3918-2.8621-7.9257-.0557-.6766-.8594-.9944-1.3622-.5379-4.8043 4.3613-7.4414 10.3595-7.5393 17.1123 0 0-2.0005-1.6862-3.0874-4.8233-.2926-.8448-1.4252-1.006-1.9166-.259-.0943.1434-.1818.2871-.2607.4265-3.7067 6.5543-5.4898 14.5136-3.8414 21.9186 2.7562 12.401 20.9881 15.868 30.6402 8.074 9.443-7.626 6.442-21.8192-1.546-30.5353z" fill="#ed694a"/><path d="m79.6753 101.556c-1.6294-7.4837.0953-15.5205 3.715-22.1774-.0916-.2208-.1796-.4492-.2619-.6867-.2926-.8448-1.4252-1.0059-1.9166-.2589-.0943.1434-.1817.287-.2605.4265-3.7068 6.5543-5.4899 14.5136-3.8415 21.9185 1.2572 5.656 5.7344 9.453 11.1483 11.171-4.2234-2.046-7.5309-5.553-8.5828-10.393z" fill="#d8553a"/><path d="m88.7947 83.391c.2002-6.1286 2.4169-11.6241 6.3843-15.8457-.0273-.2325-.0475-.4404-.0606-.5982-.0568-.6824-.8312-1.0246-1.3317-.5722-4.6403 4.1953-7.4686 10.1329-7.5701 17.1403l.8684.6744c.4278.3322 1.0073.3178 1.4158.0135.2437-.2066.2787-.5184.2939-.8121z" fill="#d8553a"/><path d="m103.289 87.3824c-.785-.8571-2.005-2.0139-2.524.5981-.177.888-.59 1.5727-.9429 2.124-.381-1.9286-1.5275-3.9247-2.6077-5.2705-.4042-.5036-1.8384-2.5052-2.114-5.8542-.0411-.4998-.6347-.7344-1.006-.3973-3.5486 3.2212-5.4965 7.6519-5.5687 12.6395 0 0-1.4777-1.2455-2.2804-3.5626-.2161-.624-1.0527-.743-1.4156-.1913-.0696.1059-.1343.2121-.1925.3151-2.738 4.8411-4.055 10.7199-2.8375 16.1898 2.0358 9.159 15.5022 11.72 22.6313 5.963 6.975-5.632 4.758-16.1157-1.142-22.5536z" fill="#f4a32c"/><path d="m84.3388 104.691c-1.0779-5.3464.0386-11.0834 2.4058-15.8606-.1804-.3533-.3513-.7437-.4994-1.1708-.2161-.624-1.0527-.7431-1.4156-.1914-.0696.1059-.1343.2121-.1925.3152-2.7379 4.8411-4.0548 10.7199-2.8375 16.1896.9469 4.26 4.3666 7.092 8.4709 8.324-2.9161-1.463-5.2121-4.032-5.9317-7.606z" fill="#e89528"/><path d="m100.628 95.6584c-.531-.5801-1.3574-1.3634-1.7089.4049-.1194.6013-.3988 1.0646-.6381 1.4378-.2579-1.3056-1.0339-2.6568-1.7652-3.5678-.2736-.3409-1.2444-1.6959-1.4311-3.9629-.0279-.3384-.4296-.4972-.681-.2689-2.4022 2.1806-3.7208 5.1798-3.7697 8.5561 0 0-1.0003-.8432-1.5436-2.4116-.1463-.4224-.7126-.503-.9583-.1295-.0472.0716-.0908.1435-.1303.2132-1.8534 3.2772-2.745 7.2563-1.9208 10.9593 1.3781 6.201 10.494 7.934 15.32 4.037 1.653-1.335 2.677-3.215 2.885-5.295.314-3.151-.899-6.9619-3.658-9.9726z" fill="#f4d44e"/><path d="m98.1603 103.338c-.296-.323-.7563-.759-.9521.226-.0666.335-.2222.593-.3555.801-.1438-.727-.5761-1.48-.9835-1.988-.1524-.19-.6934-.945-.7974-2.208-.0155-.1881-.2394-.2764-.3794-.149-1.3382 1.214-2.0729 2.885-2.1001 4.766 0 0-.5574-.469-.8601-1.343-.0815-.236-.397-.28-.5338-.072-.0263.04-.0506.08-.0725.119-1.0325 1.825-1.5293 4.043-1.0701 6.105 1.0457 4.705 9.6169 4.562 10.1422-.701.175-1.755-.5006-3.878-2.0377-5.556z" fill="#eae9e8"/><path d="m92.0459 110.529c-.4592-1.845.0376-3.829 1.0701-5.462.0219-.035.0463-.07.0725-.106.1369-.186.4523-.146.5338.064.3027.782.8601 1.202.8601 1.202.0224-1.382.5232-2.637 1.4431-3.644-.2057-.285-.835-.972-.9537-2.414-.0155-.1881-.2394-.2764-.3794-.149-1.3382 1.214-2.0729 2.885-2.1001 4.766 0 0-.5574-.469-.8601-1.343-.0814-.235-.397-.28-.5338-.072-.0263.04-.0506.08-.0725.119-1.0325 1.825-1.5293 4.043-1.0701 6.105.4249 1.912 2.1707 3.062 4.1007 3.339-1.0411-.511-1.8413-1.321-2.1106-2.405z" fill="#f7e7a1"/><g fill="#d8553a"><path d="m87.3884 68.7779c2.1541-1.752 2.1493-5.0299 0-6.7779-2.154 1.7519-2.1493 5.0299 0 6.7779z"/><path d="m113.208 82.8398c2.154-1.752 2.149-5.0299 0-6.7779-.984.8006-2.149 5.0299 0 6.7779z"/><path d="m75.0561 84.1738c1.5524-1.2627 1.549-3.625 0-4.8849-.7095.577-1.549 3.6251 0 4.8849z"/><path d="m101.943 73.6628c1.553-1.2628 1.549-3.625 0-4.885-1.552 1.2627-1.549 3.6251 0 4.885z"/></g><path d="m90.5064 90.4209c.3565-4.2087 1.9637-7.9509 4.6623-10.8038-.0273-.2068-.0503-.419-.0682-.6373-.0412-.4998-.6348-.7344-1.0061-.3973-2.812 2.5526-4.6167 5.8652-5.2815 9.612l-.001-.0003c-.0493.2779-.1105.6827-.1491 1.0008.0001.0002.0002.0004.0004.0007-.0808.6638-.1276 1.3396-.1376 2.0264.0751.0146 1.7753.8885 1.9808-.8012z" fill="#e89528"/><path d="m88.5654 107.769c-.7326-3.459-.1087-7.148 1.3408-10.3439-.2808-.3937-.5881-.9227-.8155-1.5793-.1464-.4223-.7126-.5029-.9583-.1295-.0471.0716-.0909.1436-.1304.2133-1.8533 3.2771-2.7449 7.2564-1.9208 10.9594.6455 2.904 2.988 4.828 5.7921 5.653-1.6322-1.084-2.8668-2.688-3.3079-4.773z" fill="#e8c842"/><path d="m93.2786 96.746c.2429-1.7357.9528-3.6481 2.0703-5.2469-.1217-.4514-.2175-.9615-.2642-1.5288-.0279-.3384-.4297-.4973-.681-.269-1.4967 1.3588-2.571 3.036-3.1813 4.9235l-.0016-.0004c-.096.2966-.2318.7878-.3141 1.1756.0007-.0002.0014-.0002.0021-.0005-.1685.7913-.2623 1.6125-.2745 2.4579 1.3439.1677 2.4556-.1651 2.6443-1.5114z" fill="#e8c842"/></g><path d="m476.959 143v-10.569h-1.882v4.395h-5.141v-4.395h-1.89v10.569h1.89v-4.585h5.141v4.585zm7.134 0v-8.979h3.26v-1.59h-8.401v1.59h3.252v8.979zm16.15 0v-10.569h-2.212l-3.178 7.844h-.132l-3.179-7.844h-2.212v10.569h1.758v-7.493h.102l2.923 7.163h1.347l2.923-7.163h.102v7.493zm9.346-1.619h-4.849v-8.95h-1.889v10.569h6.738z" fill="#a4a4a4"/><path d="m520.209 139.602h2.886v-1.626h-2.886v-3.025h-1.648v3.025h-2.878v1.626h2.878v3.024h1.648zm13.96 3.662c2.439 0 4.226-1.443 4.475-3.582h-1.86c-.257 1.187-1.275 1.941-2.615 1.941-1.802 0-2.922-1.501-2.922-3.911 0-2.402 1.12-3.904 2.915-3.904 1.333 0 2.351.828 2.614 2.102h1.861c-.22-2.19-2.073-3.743-4.475-3.743-2.996 0-4.849 2.117-4.849 5.552 0 3.421 1.86 5.545 4.856 5.545zm6.094-3.128c.095 1.912 1.699 3.128 4.123 3.128 2.564 0 4.153-1.275 4.153-3.326 0-1.604-.901-2.497-3.047-2.988l-1.216-.278c-1.311-.308-1.845-.725-1.845-1.45 0-.916.805-1.516 2.021-1.516 1.157 0 1.978.593 2.11 1.538h1.809c-.088-1.809-1.692-3.077-3.912-3.077-2.365 0-3.933 1.275-3.933 3.179 0 1.568.901 2.512 2.82 2.952l1.37.315c1.355.315 1.933.783 1.933 1.553 0 .9-.9 1.552-2.146 1.552-1.34 0-2.277-.615-2.395-1.582zm9.917 0c.095 1.912 1.699 3.128 4.123 3.128 2.564 0 4.153-1.275 4.153-3.326 0-1.604-.901-2.497-3.047-2.988l-1.216-.278c-1.311-.308-1.845-.725-1.845-1.45 0-.916.805-1.516 2.021-1.516 1.157 0 1.978.593 2.11 1.538h1.809c-.088-1.809-1.692-3.077-3.912-3.077-2.365 0-3.933 1.275-3.933 3.179 0 1.568.901 2.512 2.82 2.952l1.37.315c1.355.315 1.933.783 1.933 1.553 0 .9-.9 1.552-2.146 1.552-1.34 0-2.277-.615-2.395-1.582zm18.984-.534h2.886v-1.626h-2.886v-3.025h-1.648v3.025h-2.878v1.626h2.878v3.024h1.648z" fill="#fff"/><path d="m577.99 140.158c0 1.883 1.362 3.106 3.384 3.106 2.124 0 3.405-1.238 3.405-3.399v-7.434h-1.889v7.42c0 1.149-.55 1.757-1.538 1.757-.901 0-1.502-.578-1.517-1.45zm8.913-.022c.096 1.912 1.7 3.128 4.124 3.128 2.563 0 4.153-1.275 4.153-3.326 0-1.604-.901-2.497-3.047-2.988l-1.216-.278c-1.311-.308-1.846-.725-1.846-1.45 0-.916.806-1.516 2.022-1.516 1.157 0 1.977.593 2.109 1.538h1.809c-.088-1.809-1.692-3.077-3.911-3.077-2.366 0-3.933 1.275-3.933 3.179 0 1.568.901 2.512 2.82 2.952l1.369.315c1.355.315 1.934.783 1.934 1.553 0 .9-.901 1.552-2.146 1.552-1.34 0-2.278-.615-2.395-1.582z" fill="#00c2ff"/><path d="m585.392 178.906c2.637 6.918.21 15.677-7.186 24.534-7.325 8.771-19.119 17.067-33.696 22.624-14.577 5.558-28.9 7.22-40.206 5.552-11.415-1.685-19.058-6.605-21.695-13.522-2.638-6.918-.211-15.677 7.186-24.534 7.325-8.772 19.119-17.067 33.696-22.625 14.577-5.557 28.9-7.219 40.206-5.551 11.415 1.684 19.057 6.604 21.695 13.522z" stroke="#fff" stroke-width="6"/><path d="m584.676 174.123c2.878 6.822.758 15.66-6.324 24.77-7.015 9.022-18.512 17.724-32.886 23.788-14.374 6.063-28.63 8.224-39.988 6.952-11.467-1.285-19.276-5.935-22.154-12.757-2.877-6.821-.757-15.66 6.325-24.769 7.015-9.022 18.512-17.724 32.886-23.788 14.374-6.063 28.63-8.224 39.987-6.952 11.467 1.285 19.277 5.935 22.154 12.756z" stroke="#00c2ff" stroke-width="6"/></svg>