<svg fill="none" height="300" viewBox="0 0 300 300" width="300" xmlns="http://www.w3.org/2000/svg"><path d="m50 18h50c17.673 0 32 14.3269 32 32v50c0 17.673-14.327 32-32 32h-50c-17.6731 0-32-14.327-32-32v-50c0-17.6731 14.3269-32 32-32z" stroke="#000" stroke-width="11"/><path d="m250 12.5h-50c-20.711 0-37.5 16.7893-37.5 37.5v50c0 20.711 16.789 37.5 37.5 37.5h50c20.711 0 37.5-16.789 37.5-37.5v-50c0-20.7107-16.789-37.5-37.5-37.5z" fill="#c5d3d7"/><path d="m100 162.5h-50c-20.7107 0-37.5 16.789-37.5 37.5v50c0 20.711 16.7893 37.5 37.5 37.5h50c20.711 0 37.5-16.789 37.5-37.5v-50c0-20.711-16.789-37.5-37.5-37.5z" fill="#00c2ff"/><path d="m250 162.5h-50c-20.711 0-37.5 16.789-37.5 37.5v50c0 20.711 16.789 37.5 37.5 37.5h50c20.711 0 37.5-16.789 37.5-37.5v-50c0-20.711-16.789-37.5-37.5-37.5z" fill="#000"/></svg>