<svg width="70" height="70" viewBox="0 0 70 70" fill="none" xmlns="http://www.w3.org/2000/svg">
<g clip-path="url(#clip0_555_1160)">
<path opacity="0.1" d="M34.9999 0C15.75 0 0 15.75 0 34.9999C0 54.2498 15.75 69.9998 34.9999 69.9998C54.2498 69.9998 69.9998 54.2498 69.9998 34.9999C69.9998 15.75 54.25 0 34.9999 0ZM34.9999 62.9999C19.5999 62.9999 6.99989 50.4 6.99989 34.9999C6.99989 19.5999 19.5999 6.99989 34.9999 6.99989C50.4 6.99989 62.9999 19.6 62.9999 34.9999C62.9999 50.3998 50.4 62.9999 34.9999 62.9999Z" fill="black"/>
<path d="M35 13.9999C23.45 13.9999 14 23.4499 14 34.9999C14 46.5499 23.45 55.9999 35 55.9999C46.55 55.9999 56 46.5499 56 34.9999C56 23.4499 46.55 13.9999 35 13.9999ZM35 49C27.3 49 21 42.7 21 35.0001C21 27.3001 27.3 21 35 21C42.6999 21 48.9999 27.3 48.9999 34.9999C48.9999 42.6999 42.7001 49 35 49Z" fill="#00C2FF"/>
<path d="M34.9998 42C38.8658 42 41.9999 38.8659 41.9999 34.9999C41.9999 31.1339 38.8658 27.9999 34.9998 27.9999C31.1338 27.9999 27.9998 31.1339 27.9998 34.9999C27.9998 38.8659 31.1338 42 34.9998 42Z" fill="black"/>
</g>
<defs>
<clipPath id="clip0_555_1160">
<rect width="70" height="70" fill="white"/>
</clipPath>
</defs>
</svg>
