<svg fill="none" height="80" viewBox="0 0 205 80" width="205" xmlns="http://www.w3.org/2000/svg"><g fill="#000"><path d="m141.837 11.7688c-.194 5.5761-.353 9.6729-.475 12.2904-.121 2.5867-.228 5.2048-.321 7.8542-.122 3.512-.229 6.5773-.321 9.1959-.06 2.6197-.122 4.8384-.186 6.656-.177 5.0832-1.282 9.3474-3.315 12.7927-2.002 3.4464-4.501 6.1197-7.498 8.02-3.69 2.3387-7.292 3.9093-10.806 4.712-3.514.8334-7.613 1.1684-12.296 1.0049-5.822-.2033-10.4828-.9984-13.9816-2.3852-3.4679-1.3858-6.5372-3.1431-9.208-5.2721-3.0011-2.3873-5.2738-5.3198-6.818-8.7975-1.543-3.5085-2.2264-7.7889-2.0499-12.8413.0634-1.8176.1409-4.0357.2323-6.6543.1223-2.6176.2447-5.6823.3674-9.1943.1172-3.358.1965-6.0696.2378-8.1347.0731-2.0949.2076-5.9458.4034-11.5527l25.3236.8843c-.177 5.0524-.336 9.1646-.477 12.3366-.11 3.1424-.195 5.5915-.257 7.3475-.09 2.5878-.176 5.037-.256 7.3475-.05 2.3116-.119 4.7151-.2059 7.2105-.1055 3.0191.5239 5.3236 1.8869 6.9134 1.363 1.5899 3.2 2.4251 5.511 2.5058 2.341.0818 4.232-.6387 5.674-2.1615 1.441-1.5227 2.213-3.7628 2.316-6.7203.087-2.4954.177-5.0524.268-7.671.122-2.6175.218-4.9121.287-6.8838.065-1.8792.134-4.2981.207-7.2567.104-2.9882.249-7.1318.434-12.4306z"/><path d="m202.48 68.8932c-2.214.1548-6.611.4623-13.192.9225-6.552.4272-11.857.7828-15.916 1.0666-4.767.3333-9.717.6949-14.85 1.0848-5.135.3591-8.364.5848-9.686.6773-.099-1.4145-.302-4.5368-.609-9.3668-.307-4.8301-.845-12.7495-1.615-23.7582-.256-3.6594-.579-8.0557-.968-13.1889-.393-5.164-.768-10.3137-1.127-15.4491 1.937-.1354 5.213-.3491 9.828-.6408 4.643-.32475 9.225-.64514 13.746-.96124 4.551-.31824 10.316-.72142 17.297-1.20954 6.978-.51887 11.052-.81916 12.22-.90087l1.258 17.98925c-.8.0559-2.921.2042-6.365.4451-3.447.2101-5.785.3581-7.015.4441-1.753.1226-4.35.3197-7.792.5912-3.444.2409-6.104.4269-7.98.558.054.7688.129 1.8451.226 3.2289.095 1.353.167 2.3832.216 3.0904 1.907-.1333 4.475-.2975 7.706-.4925 3.26-.2279 5.751-.4021 7.473-.5225 2.091-.1462 4.336-.3032 6.734-.4709 2.397-.1985 4.517-.3623 6.363-.4913l.899 12.8692c-1.107.0774-3.29.2301-6.55.4581-3.261.1971-5.492.3377-6.691.4215-1.722.1204-4.181.3078-7.377.5622-3.167.2215-5.72.4-7.657.5354.05.7073.126 1.799.229 3.275.101 1.4453.179 2.5523.232 3.3211 1.907-.1333 4.722-.3147 8.445-.5441 3.751-.2624 6.519-.4559 8.302-.5806 2.091-.1462 4.398-.3075 6.919-.4838 2.55-.2093 4.564-.3655 6.04-.4687z"/><path d="m69.2625 7.92178c.2109 6.03822.3767 11.22972.4976 15.57462.1198 4.3141.2421 8.2579.3669 11.8315.1614 4.6211.3634 9.9656.6062 16.0335.2416 6.0371.4152 10.5652.5206 13.5843l-17.2895 7.0349c-6.0818-7.2212-11.5736-13.4451-16.4754-18.6717-4.9028-5.2575-8.2496-8.7957-10.0404-10.6147l-.3633.1978c.156 4.467.3532 9.6728.5917 15.6175.2384 5.9447.4028 10.211.4932 12.7988l-23.52124.8214c-.08821-2.5262-.22073-6.7627-.39756-12.7096-.17682-5.9468-.3868-12.4015-.62993-19.3639-.1022-2.9266-.24186-6.4843-.41898-10.673-.17819-4.2195-.37037-8.8395-.57654-13.86l18.24705-7.43843c2.5657 2.80983 5.8025 6.29013 9.7105 10.44113 3.9378 4.119 9.2327 9.5633 15.8848 16.3327l.2724-.1483c-.1269-3.6352-.2854-7.732-.4755-12.2904-.19-4.5584-.3646-9.1173-.5238-13.67674z"/></g></svg>