<svg fill="none" height="80" viewBox="0 0 207 80" width="207" xmlns="http://www.w3.org/2000/svg"><path d="m140.487 11.1387c-.195 5.5761-.353 9.6729-.476 12.2904-.121 2.5867-.228 5.2048-.32 7.8542-.123 3.512-.23 6.5773-.321 9.1959-.061 2.6197-.123 4.8384-.186 6.656-.178 5.0832-1.283 9.3474-3.316 12.7927-2.002 3.4464-4.501 6.1197-7.497 8.02-3.691 2.3387-7.293 3.9093-10.806 4.712-3.515.8334-7.614 1.1684-12.296 1.0049-5.8227-.2033-10.4834-.9984-13.9821-2.3852-3.4679-1.3858-6.5372-3.1431-9.2081-5.2721-3.0011-2.3873-5.2737-5.3198-6.8179-8.7975-1.5431-3.5085-2.2264-7.7889-2.05-12.8413.0635-1.8176.141-4.0357.2324-6.6543.1223-2.6176.2447-5.6823.3673-9.1943.1173-3.358.1966-6.0696.2378-8.1347.0732-2.0949.2077-5.9458.4035-11.5527l25.3234.88432c-.1764 5.05238-.3354 9.16458-.4771 12.33658-.1097 3.1424-.1952 5.5915-.2565 7.3475-.0904 2.5878-.1759 5.037-.2566 7.3475-.0499 2.3116-.1184 4.7151-.2055 7.2105-.1055 3.0191.5235 5.3236 1.8864 6.9134 1.364 1.5899 3.201 2.4251 5.511 2.5058 2.342.0818 4.233-.6387 5.674-2.1615 1.441-1.5227 2.213-3.7628 2.317-6.7203.087-2.4954.176-5.0524.268-7.671.122-2.6175.217-4.9121.286-6.8838.066-1.8792.135-4.2981.207-7.2567.105-2.9882.249-7.1318.434-12.4306z" fill="#00c2ff"/><path d="m204.514 68.2379c-2.283.1586-6.817.4736-13.603.9451-6.757.4375-12.228.8017-16.413 1.0925-4.915.3415-10.02.712-15.313 1.1117-5.296.3679-8.625.5992-9.989.6939-.102-1.4585-.313-4.678-.632-9.6583-.318-4.9803-.877-13.1462-1.676-24.4976-.265-3.7732-.6-8.3063-1.005-13.5994-.406-5.3247-.796-10.6346-1.169-15.92983 1.998-.13879 5.376-.35756 10.135-.65631 4.788-.33267 9.513-.66093 14.174-.98478 4.693-.32605 10.639-.73913 17.837-1.23922 7.196-.53181 11.396-.83957 12.601-.92328l1.306 18.54912c-.825.0572-3.013.2092-6.564.456-3.554.215-5.965.3666-7.233.4547-1.808.1256-4.486.3276-8.035.6061-3.552.2467-6.295.4373-8.229.5717.056.7927.134 1.9024.234 3.3293.098 1.3951.173 2.4573.224 3.1866 1.966-.1366 4.615-.3047 7.947-.5043 3.361-.2335 5.93-.412 7.706-.5353 2.156-.1498 4.471-.3107 6.944-.4825 2.471-.2036 4.658-.3714 6.561-.5036l.934 13.2697c-1.142.0793-3.393.2357-6.755.4693-3.363.2018-5.663.3457-6.9.4316-1.776.1233-4.311.3154-7.607.5763-3.266.2269-5.898.4097-7.896.5485.052.7293.131 1.8549.238 3.3769.105 1.4903.185 2.6318.241 3.4245 1.966-.1366 4.869-.3224 8.708-.5572 3.868-.2688 6.722-.4671 8.561-.5948 2.157-.1499 4.535-.3151 7.135-.4957 2.63-.2146 4.706-.3748 6.228-.4805z" fill="#fff"/><path d="m69.587 7.29169c.2109 6.03821.3768 11.22971.4976 15.57461.1198 4.3141.2421 8.2579.3669 11.8315.1614 4.6211.3635 9.9656.6062 16.0335.2417 6.0371.4152 10.5652.5206 13.5843l-17.2895 7.0349c-6.0818-7.2212-11.5736-13.4451-16.4753-18.6717-4.9029-5.2575-8.2497-8.7957-10.0405-10.6147l-.3632.1978c.1559 4.467.3532 9.6729.5916 15.6175.2384 5.9447.4028 10.211.4932 12.7988l-23.52121.8214c-.08822-2.5262-.22074-6.7627-.39756-12.7096-.17683-5.9468-.38681-12.4015-.62994-19.3639-.1022-2.9266-.24186-6.4843-.41898-10.673-.17819-4.2195-.37037-8.8395-.57653-13.86l18.24702-7.43842c2.5657 2.80982 5.8026 6.29022 9.7106 10.44112 3.9377 4.119 9.2326 9.5633 15.8847 16.3327l.2724-.1483c-.1269-3.6352-.2854-7.732-.4754-12.2904-.1901-4.5584-.3647-9.1173-.5239-13.67673z" fill="#000"/></svg>