<svg fill="none" height="79" viewBox="0 0 207 79" width="207" xmlns="http://www.w3.org/2000/svg"><path d="m140.776 9.88049c-.195 5.57611-.353 9.67291-.475 12.29041-.122 2.5867-.229 5.2048-.321 7.8542-.123 3.512-.23 6.5773-.321 9.1959-.061 2.6197-.123 4.8384-.186 6.656-.178 5.0831-1.283 9.3474-3.316 12.7927-2.001 3.4464-4.501 6.1197-7.497 8.02-3.691 2.3387-7.293 3.9093-10.806 4.712-3.515.8334-7.613 1.1684-12.296 1.0049-5.8227-.2033-10.4833-.9984-13.982-2.3852-3.4679-1.3858-6.5373-3.1431-9.2081-5.2721-3.0011-2.3874-5.2737-5.3199-6.8179-8.7975-1.5431-3.5085-2.2264-7.7889-2.05-12.8413.0635-1.8176.1409-4.0357.2324-6.6543.1222-2.6176.2447-5.6823.3673-9.1944.1173-3.3579.1965-6.0695.2378-8.1346.0732-2.0949.2076-5.9458.4034-11.55271l25.3231.88432c-.1761 5.05239-.3351 9.16459-.4767 12.33659-.1097 3.1424-.1953 5.5915-.2566 7.3475-.0903 2.5878-.1759 5.037-.2566 7.3475-.0498 2.3116-.1183 4.7151-.2055 7.2105-.1054 3.0191.5235 5.3236 1.8864 6.9134 1.364 1.5899 3.201 2.4251 5.511 2.5058 2.342.0818 4.233-.6387 5.674-2.1615 1.441-1.5227 2.213-3.7628 2.317-6.7203.087-2.4954.176-5.0524.268-7.671.122-2.6175.217-4.9121.286-6.8838.066-1.8792.135-4.2981.207-7.2567.105-2.9882.249-7.1318.435-12.43063z" fill="#00c2ff"/><path d="m203.8 67.6455c-2.283.1586-6.818.4737-13.604.9451-6.756.4376-12.227.8017-16.413 1.0925-4.915.3415-10.019.7121-15.312 1.1117-5.296.3679-8.625.5992-9.989.694-.102-1.4586-.313-4.6781-.632-9.6584-.318-4.9803-.877-13.1462-1.676-24.4976-.266-3.7732-.601-8.3063-1.005-13.5993-.407-5.3247-.796-10.6347-1.169-15.9299 1.998-.1388 5.376-.35757 10.135-.65632 4.788-.33266 9.513-.66092 14.174-.98477 4.693-.32606 10.639-.73913 17.837-1.23923 7.196-.5318 11.396-.83956 12.601-.92328l1.306 18.5491c-.825.0573-3.013.2093-6.564.456-3.554.215-5.965.3666-7.234.4547-1.807.1256-4.485.3276-8.035.6061-3.551.2467-6.294.4373-8.228.5717.055.7927.133 1.9025.234 3.3293.098 1.3951.173 2.4574.224 3.1866 1.966-.1366 4.615-.3047 7.947-.5043 3.361-.2335 5.93-.4119 7.705-.5353 2.157-.1498 4.471-.3106 6.945-.4825 2.471-.2035 4.658-.3714 6.56-.5036l.934 13.2697c-1.141.0794-3.393.2358-6.754.4693-3.363.2018-5.663.3457-6.9.4316-1.776.1234-4.312.3155-7.607.5763-3.266.2269-5.898.4098-7.896.5486.051.7292.131 1.8549.238 3.3768.105 1.4903.185 2.6318.241 3.4245 1.966-.1366 4.868-.3223 8.708-.5572 3.868-.2688 6.722-.467 8.561-.5948 2.156-.1498 4.535-.3151 7.135-.4957 2.63-.2146 4.705-.3747 6.228-.4805z" fill="#d9d9d9"/><path d="m68.8761 7.03349c.2108 6.03821.3767 11.22971.4976 15.57461.1198 4.3141.2421 8.2579.3669 11.8315.1614 4.6211.3634 9.9656.6062 16.0335.2416 6.0371.4152 10.5652.5206 13.5843l-17.2895 7.0349c-6.0818-7.2212-11.5736-13.4451-16.4754-18.6717-4.9028-5.2575-8.2496-8.7957-10.0405-10.6147l-.3632.1978c.156 4.467.3532 9.6729.5917 15.6176.2384 5.9446.4028 10.2109.4932 12.7987l-23.52125.8214c-.08822-2.5262-.22074-6.7627-.39756-12.7096-.17683-5.9468-.3868-12.4014-.62994-19.3639-.1022-2.9266-.24186-6.4843-.41897-10.673-.1782-4.2195-.37038-8.8395-.57654-13.86l18.24706-7.43842c2.5657 2.80982 5.8025 6.29022 9.7105 10.44112 3.9378 4.1191 9.2327 9.5633 15.8848 16.3327l.2724-.1483c-.127-3.6352-.2854-7.732-.4755-12.2904-.19-4.5584-.3646-9.1173-.5238-13.67673z" fill="#000"/></svg>