<svg fill="none" height="66" viewBox="0 0 58 66" width="58" xmlns="http://www.w3.org/2000/svg"><path d="m57.5954 62.5504c-2.2164.1162-6.6185.3469-13.2062.6921-6.5585.3129-11.8695.5758-15.9329.7888-4.7715.25-9.7269.5252-14.8661.8254-5.14089.2694-8.37317.4388-9.69687.5081-.07421-1.416-.22257-4.5413-.44507-9.376-.22251-4.8346-.62254-12.7622-1.2001-23.7828-.19199-3.6632-.43808-8.0645-.73829-13.2037-.30181-5.1701-.587433-10.32552-.856855-15.46638 1.939365-.10164 5.218635-.25807 9.837785-.46928 4.6483-.24361 9.2351-.48399 13.7603-.72115 4.556-.23876 10.3279-.54126 17.3158-.90748 6.9863-.397 11.0643-.626155 12.2341-.687461l.9437 18.008451c-.8003.0419-2.9244.1532-6.3722.3339-3.4494.1499-5.7897.2572-7.0211.3217-1.7546.0919-4.355.2437-7.8012.4551-3.4478.1807-6.1105.3203-7.9883.4187.0403.7696.0968 1.847.1694 3.2323.0709 1.3544.125 2.3857.1621 3.0937 1.9086-.1 4.4798-.2193 7.7137-.3579 3.2631-.171 5.7566-.3017 7.4804-.3921 2.0933-.1097 4.3405-.2274 6.7417-.3533 2.3995-.1566 4.5227-.2833 6.3697-.3801l.6752 12.8829c-1.1082.0581-3.2938.1727-6.5569.3437-3.2647.1402-5.4973.2418-6.6979.3047-1.7238.0903-4.1857.2348-7.3856.4334-3.1707.1661-5.7258.3-7.6651.4017.0371.708.0943 1.8008.1718 3.2784.0758 1.4469.1339 2.5551.1742 3.3247 1.9086-.1001 4.7261-.2323 8.4525-.3967 3.7556-.1968 6.5262-.342 8.3116-.4356 2.0933-.1097 4.4021-.2307 6.9263-.363 2.5535-.1647 4.569-.2857 6.0466-.3632z" fill="#000"/></svg>