<svg fill="none" height="107" viewBox="0 0 107 107" width="107" xmlns="http://www.w3.org/2000/svg"><path d="m.880859 4.33694c0-1.84294 1.494001-3.33694 3.336941-3.33694h99.3262c1.843 0 3.337 1.494 3.337 3.33694v99.32606c0 1.843-1.494 3.337-3.337 3.337h-99.3262c-1.84294 0-3.336941-1.494-3.336941-3.337z" fill="#000"/><path d="m77.8451 82.0568c-1.9766 0-5.9022 0-11.7769 0-5.8473-.0274-10.5828-.0412-14.2064-.0412-4.2551 0-8.6749.0138-13.2593.0412-4.5845 0-7.467 0-8.6474 0 0-1.2628.0137-4.0491.0412-8.3591.0274-4.31.0411-11.3789.0411-21.2067 0-3.2668-.0137-7.1924-.0411-11.7769-.0275-4.6119-.0412-9.2101-.0412-13.7946 1.7295 0 4.6531.0137 8.7709.0412h12.271 15.4418c6.2316-.0275 9.869-.0412 10.9121-.0412v16.0594c-.7137 0-2.6079 0-5.6825 0-3.0746-.0274-5.161-.0412-6.2591-.0412-1.5647 0-3.8844.0138-6.9591.0412-3.0746 0-5.4492 0-7.1237 0v2.8825 2.7589c1.702 0 3.9942.0137 6.8767.0412h6.6708 6.012c2.1413-.0275 4.0354-.0412 5.6826-.0412v11.4887c-.9883 0-2.9374 0-5.8473 0-2.9099-.0275-4.9002-.0412-5.9708-.0412-1.5373 0-3.7335.0137-6.5885.0412-2.8276 0-5.1061 0-6.8355 0v2.9236 2.9648c1.702 0 4.2138.0137 7.5355.0412h7.4121 6.1767c2.2785-.0275 4.0766-.0412 5.3943-.0412z" fill="#fff"/></svg>