<svg fill="none" height="106" viewBox="0 0 106 106" width="106" xmlns="http://www.w3.org/2000/svg"><path d="m1.8772 5.23223c0-1.84294 1.494-3.33694 3.33694-3.33694h95.17586c1.843 0 3.337 1.494 3.337 3.33694v95.17577c0 1.843-1.494 3.337-3.337 3.337h-95.17586c-1.84294 0-3.33694-1.494-3.33694-3.337z" fill="#000"/><path d="m78.3238 82.9808c-2.1002-.0367-6.2715-.1095-12.5139-.2185-6.2127-.1376-11.2443-.24-15.0947-.3072-4.5214-.0789-9.218-.1463-14.0899-.2022-4.8714-.085-7.9343-.1385-9.1886-.1604.0234-1.3418.0897-4.3023.1988-8.8815s.2548-12.0902.4371-22.5331c.0606-3.4712.1188-7.6428.1747-12.5147.0563-4.9011.127-9.7873.2121-14.6587 1.8377.0321 4.944.1009 9.319.2064 4.4047.0769 8.751.1528 13.039.2276 4.3172.0754 9.7866.1708 16.4082.2864 6.6221.0864 10.4874.1393 11.5958.1587l-.2978 17.0644c-.7584-.0132-2.7712-.0483-6.0382-.1054-3.2666-.0862-5.4832-.1394-6.65-.1598-1.6627-.029-4.1278-.0575-7.3954-.0853-3.267-.057-5.7903-.1011-7.5696-.1321-.0128.7292-.0306 1.7502-.0535 3.0628-.0224 1.2835-.0394 2.2607-.0512 2.9316 1.8086.0316 4.244.0887 7.3064.1713 3.092.054 5.4548.0952 7.0883.1237 1.9836.0346 4.113.0718 6.3882.1115 2.2758.0106 4.2888.0311 6.039.0617l-.2131 12.2076c-1.0501-.0183-3.1212-.0544-6.2132-.1084-3.0915-.0832-5.2061-.1347-6.3437-.1545-1.6335-.0285-3.9674-.0547-7.0016-.0785-3.0045-.0524-5.4256-.0947-7.2633-.1267-.0118.6709-.0298 1.7064-.0543 3.1066-.0239 1.371-.0422 2.4211-.055 3.1503 1.8086.0316 4.4774.0928 8.0065.1836 3.5587.0621 6.184.1079 7.8759.1374 1.9835.0347 4.1713.0728 6.5632.1146 2.4217.0131 4.3325.0319 5.7327.0563z" fill="#fff"/></svg>