<svg fill="none" height="130" viewBox="0 0 251 130" width="251" xmlns="http://www.w3.org/2000/svg"><path d="m1.39928 31.3049c-.507986-1.7715.51634-3.6195 2.28788-4.1274l89.79894-25.74947c1.7715-.507985 3.6195.51634 4.1274 2.28788l25.7495 89.79889c.508 1.7716-.516 3.6195-2.288 4.1275l-89.7988 25.7497c-1.7716.508-3.6195-.517-4.1275-2.288z" fill="#000"/><rect fill="#00c2ff" height="100.092" rx="3.33694" transform="matrix(.9945219 -.10452846 .10452846 .9945219 -2.510991 1.910441)" width="100.092" x="16.9712" y="24.9115"/><path d="m27.4739 33.2162c-.0643-1.8419 1.3766-3.3871 3.2184-3.4514l93.3607-3.2602c1.842-.0644 3.387 1.3766 3.452 3.2184l3.26 93.361c.064 1.842-1.377 3.387-3.219 3.451l-93.3605 3.26c-1.8418.065-3.3871-1.376-3.4514-3.218z" fill="#fff"/><g fill="#000"><path d="m187.837 50.6626c-.194 5.5761-.353 9.6729-.475 12.2904-.121 2.5867-.228 5.2048-.321 7.8542-.122 3.512-.229 6.5773-.321 9.1959-.06 2.6197-.122 4.8384-.186 6.656-.177 5.0831-1.282 9.3474-3.315 12.7927-2.002 3.4462-4.501 6.1202-7.498 8.0202-3.69 2.338-7.292 3.909-10.806 4.712-3.514.833-7.613 1.168-12.296 1.005-5.822-.204-10.483-.999-13.982-2.386-3.467-1.385-6.537-3.143-9.208-5.272-3.001-2.387-5.273-5.319-6.818-8.7971-1.543-3.5085-2.226-7.7889-2.05-12.8413.064-1.8176.141-4.0357.233-6.6543.122-2.6176.245-5.6823.367-9.1944.117-3.3579.197-6.0695.238-8.1346.073-2.0949.208-5.9458.403-11.5527l25.324.8843c-.177 5.0524-.336 9.1646-.477 12.3366-.11 3.1424-.195 5.5915-.257 7.3475-.09 2.5878-.176 5.037-.256 7.3475-.05 2.3116-.119 4.7151-.206 7.2105-.105 3.0191.524 5.3236 1.887 6.9134 1.363 1.5899 3.2 2.4251 5.511 2.5058 2.341.0818 4.232-.6387 5.674-2.1615 1.441-1.5227 2.213-3.7629 2.316-6.7203.087-2.4954.177-5.0524.268-7.671.122-2.6175.218-4.9121.287-6.8838.065-1.8792.134-4.2981.207-7.2567.104-2.9883.249-7.1318.434-12.4306z"/><path d="m248.48 107.787c-2.214.155-6.611.462-13.192.922-6.552.428-11.857.783-15.916 1.067-4.767.333-9.717.695-14.85 1.085-5.135.359-8.364.585-9.686.677-.099-1.414-.302-4.537-.609-9.367-.307-4.8297-.845-12.7491-1.615-23.7578-.256-3.6594-.579-8.0557-.968-13.1889-.393-5.164-.768-10.3137-1.127-15.4491 1.937-.1354 5.213-.3491 9.828-.6409 4.643-.3247 9.225-.645 13.746-.9611 4.551-.3183 10.316-.7215 17.297-1.2096 6.978-.5189 11.052-.8191 12.22-.9009l1.258 17.9893c-.8.0559-2.921.2042-6.365.4451-3.447.21-5.785.3581-7.015.4441-1.753.1226-4.35.3197-7.792.5912-3.444.2409-6.104.4269-7.98.558.054.7688.129 1.8451.226 3.2289.095 1.353.167 2.3832.216 3.0904 1.907-.1333 4.475-.2975 7.706-.4925 3.26-.2279 5.751-.4021 7.473-.5225 2.091-.1462 4.336-.3032 6.734-.4709 2.397-.1985 4.517-.3623 6.363-.4913l.899 12.8692c-1.107.0774-3.29.2301-6.55.458-3.261.1972-5.492.3377-6.691.4216-1.722.1204-4.181.3078-7.377.5622-3.167.2215-5.72.4-7.657.5354.05.7073.126 1.799.229 3.275.101 1.4453.179 2.5523.232 3.3211 1.907-.1333 4.722-.3147 8.445-.5442 3.751-.2623 6.519-.4558 8.302-.5805 2.091-.1463 4.398-.3075 6.919-.4839 2.55-.2092 4.564-.3654 6.04-.4686z"/><path d="m115.262 46.8156c.211 6.0382.377 11.2297.498 15.5746.12 4.3141.242 8.2579.367 11.8315.161 4.6211.363 9.9656.606 16.0335.242 6.0371.415 10.5648.521 13.5848l-17.2897 7.034c-6.0818-7.221-11.5736-13.4447-16.4754-18.6713-4.9028-5.2575-8.2496-8.7957-10.0404-10.6147l-.3633.1978c.156 4.467.3532 9.6729.5917 15.6176.2384 5.9446.4028 10.2106.4932 12.7986l-23.5212.821c-.0883-2.526-.2208-6.762-.3976-12.7091-.1768-5.9468-.3868-12.4014-.6299-19.3638-.1022-2.9267-.2419-6.4844-.419-10.6731-.1782-4.2195-.3704-8.8395-.5765-13.86l18.247-7.4384c2.5657 2.8098 5.8025 6.2902 9.7105 10.4411 3.9378 4.1191 9.2327 9.5633 15.8848 16.3327l.2724-.1483c-.1269-3.6352-.2854-7.732-.4755-12.2904-.19-4.5584-.3646-9.1173-.5238-13.6767z"/></g></svg>