<svg fill="none" height="124" viewBox="0 0 346 124" width="346" xmlns="http://www.w3.org/2000/svg"><path d="m234.338 15.6999c-.087-1.6546 1.184-3.0662 2.839-3.1529l99.863-5.23362c1.654-.08672 3.066 1.18429 3.153 2.83892l5.233 99.8627c.087 1.655-1.184 3.066-2.839 3.153l-99.863 5.234c-1.654.086-3.066-1.185-3.152-2.839z" fill="#000"/><path d="m317.419 92.0919c-2.098.11-6.264.3283-12.499.6551-6.207.296-11.233.5449-15.079.7464-4.516.2367-9.206.4971-14.07.7812-4.865.255-7.924.4153-9.177.481-.07-1.3402-.211-4.2981-.421-8.8738-.211-4.5756-.59-12.0785-1.136-22.5087-.182-3.467-.415-7.6325-.699-12.4964-.286-4.8931-.556-9.7723-.811-14.6378 1.836-.0962 4.939-.2442 9.311-.4441 4.399-.2306 8.74-.4581 13.023-.6826 4.312-.2259 9.775-.5122 16.388-.8588 6.612-.3758 10.472-.5926 11.579-.6507l.893 17.0437c-.757.0397-2.768.1451-6.031.3161-3.264.1419-5.479.2433-6.645.3044-1.66.0871-4.122.2306-7.383.4308-3.263.171-5.783.3031-7.56.3962.038.7284.091 1.7481.16 3.0591.067 1.282.118 2.258.153 2.9281 1.807-.0947 4.24-.2076 7.301-.3388 3.088-.1619 5.448-.2856 7.079-.3711 1.982-.1038 4.108-.2152 6.381-.3343 2.271-.1483 4.28-.2682 6.028-.3598l.639 12.1928c-1.048.055-3.117.1634-6.205.3252-3.09.1327-5.203.2289-6.339.2884-1.632.0855-3.962.2222-6.99.4102-3.001.1572-5.419.284-7.255.3801.035.6701.09 1.7044.163 3.1029.072 1.3693.127 2.4181.165 3.1465 1.806-.0947 4.473-.2198 8-.3754 3.554-.1863 6.176-.3237 7.866-.4123 1.981-.1038 4.166-.2183 6.555-.3435 2.417-.1559 4.324-.2705 5.723-.3438z" fill="#fff"/><rect fill="#00c2ff" height="106" rx="3.33694" transform="matrix(.99756405 .06975647 -.06975647 .99756405 .624921 -8.833246)" width="106" x="126.788" y="4.53107"/><path d="m210.048 36.5255c-.374 5.3491-.664 9.2787-.869 11.7887-.203 2.4804-.394 4.9914-.571 7.5329-.236 3.3691-.442 6.3097-.617 8.8217-.146 2.5141-.28 4.6429-.402 6.3866-.341 4.8763-1.546 8.9349-3.614 12.1758-2.038 3.243-4.528 5.7269-7.47 7.4515-3.623 2.1225-7.135 3.5102-10.537 4.1633-3.403.6826-7.351.8669-11.843.5528-5.586-.3906-10.036-1.3106-13.35-2.7599-3.284-1.4473-6.173-3.2381-8.667-5.3726-2.802-2.3936-4.887-5.2864-6.253-8.6784-1.365-3.4215-1.877-7.5557-1.538-12.4024.122-1.7436.27-3.8715.446-6.3835.205-2.51.426-5.4495.661-8.8185.225-3.2214.392-5.8231.501-7.8052.141-2.0096.399-5.7038.775-11.0825l24.293 1.6987c-.339 4.8468-.629 8.7911-.872 11.833-.211 3.0145-.375 5.3639-.493 7.0485-.173 2.4824-.338 4.8319-.493 7.0484-.125 2.2186-.271 4.5248-.439 6.9186-.202 2.8962.324 5.1307 1.581 6.7034 1.256 1.5727 2.992 2.4366 5.208 2.5916 2.247.157 4.087-.4716 5.522-1.8858 1.436-1.4142 2.253-3.5399 2.451-6.377.167-2.3938.339-4.8467.515-7.3587.205-2.51.374-4.7107.506-6.6021.126-1.8027.273-4.1237.442-6.9629.201-2.8666.479-6.8415.834-11.9247z" fill="#fff"/><path d="m101.299 5.67666-95.04538 4.98114c-2.66771.1398-4.71698 2.4157-4.57717 5.0835l4.98114 95.0457c.13981 2.668 2.41575 4.717 5.08351 4.577l95.0459-4.981c2.668-.14 4.717-2.416 4.577-5.083l-4.981-95.0462c-.14-2.66769-2.416-4.71695-5.084-4.57714z" fill="#fff" stroke="#000" stroke-width="3"/><path d="m88.2202 28.2529c.3162 6.0336.5726 11.2215.7693 15.5636.1951 4.3113.3862 8.2524.5733 11.8233.242 4.6176.5373 9.9577.8859 16.0205.347 6.032.5996 10.5564.7577 13.5731l-17.1641 7.3356c-6.207-7.1139-11.8065-13.2411-16.7988-18.3814-4.9938-5.1711-8.4019-8.6503-10.2242-10.4378l-.3597.2041c.234 4.4636.522 9.6652.8641 15.6049.3422 5.9396.581 10.2023.7165 12.7882l-23.5033 1.2317c-.1323-2.5243-.3387-6.7578-.6193-12.7007-.2806-5.9428-.6032-12.3928-.9678-19.3499-.1532-2.9245-.355-6.4792-.6051-10.6641-.2519-4.2158-.5246-8.8317-.8184-13.8478l18.1145-7.7558c2.6143 2.7646 5.9114 6.188 9.8913 10.2701 4.009 4.0497 9.3981 9.4007 16.1673 16.053l.2698-.153c-.1904-3.6325-.4203-7.7259-.6899-12.2803-.2695-4.5544-.5237-9.1095-.7625-13.6655z" fill="#000"/></svg>