<svg fill="none" height="66" viewBox="0 0 70 66" width="70" xmlns="http://www.w3.org/2000/svg"><path d="m67.4911.938416c.2109 6.038194.3768 11.229684.4976 15.574584.1198 4.3141.2422 8.2579.3669 11.8316.1614 4.621.3635 9.9655.6062 16.0334.2417 6.0372.4152 10.5653.5207 13.5844l-17.2896 7.0348c-6.0818-7.2211-11.5736-13.4451-16.4753-18.6717-4.9029-5.2575-8.2497-8.7957-10.0405-10.6147l-.3632.1978c.156 4.467.3532 9.6729.5916 15.6176.2385 5.9447.4029 10.2109.4932 12.7987l-23.5212.8214c-.08822-2.5262-.22074-6.7627-.39756-12.7095-.17682-5.9469-.3868-12.4015-.62994-19.3639-.1022-2.9267-.24186-6.4844-.41897-10.6731-.1782-4.2195-.37037-8.8395-.576538-13.85994l18.247008-7.43845c2.5657 2.8098 5.8026 6.29017 9.7106 10.44109 3.9377 4.1191 9.2326 9.5633 15.8847 16.3328l.2724-.1483c-.1269-3.6353-.2854-7.7321-.4754-12.2905-.19-4.5583-.3647-9.11725-.5239-13.67671z" fill="#000"/></svg>