<svg fill="none" height="121" viewBox="0 0 122 121" width="122" xmlns="http://www.w3.org/2000/svg" xmlns:xlink="http://www.w3.org/1999/xlink"><filter id="a" color-interpolation-filters="sRGB" filterUnits="userSpaceOnUse" height="121" width="121" x=".595703" y="0"><feFlood flood-opacity="0" result="BackgroundImageFix"/><feColorMatrix in="SourceAlpha" result="hardAlpha" type="matrix" values="0 0 0 0 0 0 0 0 0 0 0 0 0 0 0 0 0 0 127 0"/><feOffset dy="4"/><feGaussianBlur stdDeviation="4"/><feComposite in2="hardAlpha" operator="out"/><feColorMatrix type="matrix" values="0 0 0 0 0 0 0 0 0 0 0 0 0 0 0 0 0 0 0.25 0"/><feBlend in2="BackgroundImageFix" mode="normal" result="effect1_dropShadow_642_386"/><feBlend in="SourceGraphic" in2="effect1_dropShadow_642_386" mode="normal" result="shape"/></filter><g filter="url(#a)"><path d="m8.5957 7.33694c0-1.84294 1.494-3.33694 3.3369-3.33694h98.3264c1.843 0 3.337 1.494 3.337 3.33694v98.32606c0 1.843-1.494 3.337-3.337 3.337h-98.3264c-1.8429 0-3.3369-1.494-3.3369-3.337z" fill="#fff"/></g><path d="m92.9984 27.8061c0 5.781-.0147 10.7509-.0442 14.9096-.0295 4.1293-.0443 7.9047-.0443 11.3261 0 4.4242.0148 9.5415.0443 15.352.0295 5.781.0442 10.1168.0442 13.0072l-16.7678 6.1497c-5.5745-7.1082-10.6182-13.2432-15.1309-18.4048-4.5127-5.191-7.5949-8.6862-9.2466-10.4854l-.3539.177c0 4.2767.0147 9.2614.0442 14.9539s.0442 9.7775.0442 12.2551h-22.5193c0-2.4186.0148-6.4741.0442-12.1666.0295-5.6925.0443-11.8717.0443-18.5375 0-2.8021-.0148-6.2087-.0443-10.22-.0294-4.0408-.0589-8.465-.0884-13.2727l17.6969-6.5036c2.3596 2.7725 5.3386 6.2087 8.9369 10.3085 3.6279 4.0702 8.5093 9.4531 14.6442 16.1484l.2655-.1327c0-3.4804-.0148-7.4033-.0443-11.7685s-.0442-8.7305-.0442-13.0957z" fill="#000"/></svg>