<svg width="115" height="115" viewBox="0 0 115 115" fill="none" xmlns="http://www.w3.org/2000/svg">
<mask id="path-1-inside-1_1869_465" fill="white">
<path d="M10.0387 6.49601C10.1673 4.65756 11.7618 3.27142 13.6003 3.39997L108.545 10.0391C110.383 10.1677 111.769 11.7623 111.641 13.6007L105.002 108.545C104.873 110.384 103.278 111.77 101.44 111.641L6.49559 105.002C4.65714 104.873 3.27099 103.279 3.39955 101.44L10.0387 6.49601Z"/>
</mask>
<path d="M10.0387 6.49601C10.1673 4.65756 11.7618 3.27142 13.6003 3.39997L108.545 10.0391C110.383 10.1677 111.769 11.7623 111.641 13.6007L105.002 108.545C104.873 110.384 103.278 111.77 101.44 111.641L6.49559 105.002C4.65714 104.873 3.27099 103.279 3.39955 101.44L10.0387 6.49601Z" fill="white" stroke="black" stroke-width="12" mask="url(#path-1-inside-1_1869_465)"/>
<path d="M87.2589 29.5659C87.2589 34.9121 87.2453 39.5082 87.218 43.3542C87.1907 47.1729 87.1771 50.6643 87.1771 53.8284C87.1771 57.9199 87.1907 62.6524 87.218 68.0258C87.2453 73.372 87.2589 77.3817 87.2589 80.0548L71.7522 85.742C66.597 79.1683 61.9327 73.4948 57.7594 68.7214C53.586 63.9207 50.7357 60.6885 49.2082 59.0246L48.8808 59.1882C48.8808 63.1433 48.8945 67.7531 48.9218 73.0174C48.949 78.2818 48.9627 82.0596 48.9627 84.3509L28.137 84.3508C28.137 82.1142 28.1507 78.3636 28.178 73.0993C28.2052 67.8349 28.2189 62.1205 28.2189 55.956C28.2189 53.3647 28.2052 50.2143 28.178 46.5047C28.1507 42.7678 28.1234 38.6763 28.0961 34.2302L44.462 28.2157C46.6442 30.7797 49.3991 33.9574 52.7268 37.7489C56.0819 41.513 60.5961 46.491 66.2696 52.6828L66.5151 52.56C66.5151 49.3414 66.5015 45.7136 66.4742 41.6767C66.4469 37.6398 66.4333 33.6029 66.4333 29.5659L87.2589 29.5659Z" fill="black"/>
</svg>
