<svg fill="none" height="110" viewBox="0 0 212 110" width="212" xmlns="http://www.w3.org/2000/svg"><g fill="#000"><path d="m145.325 21.1533c-.195 5.5761-.354 9.6729-.476 12.2904-.121 2.5868-.228 5.2048-.32 7.8542-.123 3.5121-.23 6.5774-.322 9.196-.06 2.6196-.122 4.8383-.186 6.6559-.177 5.0832-1.282 9.3474-3.315 12.7927-2.002 3.4464-4.501 6.1197-7.498 8.02-3.69 2.3387-7.292 3.9094-10.806 4.712-3.514.8335-7.613 1.1684-12.296 1.0049-5.822-.2033-10.4827-.9984-13.9814-2.3852-3.4679-1.3857-6.5373-3.1431-9.2081-5.2721-3.0011-2.3873-5.2738-5.3198-6.8179-8.7975-1.5431-3.5085-2.2265-7.7889-2.05-12.8413.0635-1.8176.1409-4.0357.2324-6.6543.1222-2.6175.2447-5.6823.3673-9.1943.1173-3.358.1965-6.0696.2378-8.1347.0732-2.0949.2076-5.9458.4034-11.5527l25.3235.8843c-.176 5.0524-.335 9.1646-.477 12.3367-.11 3.1423-.195 5.5915-.257 7.3475-.09 2.5878-.176 5.0369-.256 7.3475-.05 2.3116-.119 4.7151-.206 7.2104-.105 3.0191.524 5.3236 1.887 6.9134 1.363 1.5899 3.2 2.4252 5.511 2.5058 2.341.0818 4.232-.6387 5.674-2.1614 1.441-1.5228 2.213-3.7629 2.316-6.7204.087-2.4954.177-5.0524.268-7.671.122-2.6175.218-4.9121.287-6.8837.066-1.8793.135-4.2982.207-7.2567.104-2.9883.249-7.1319.434-12.4307z"/><path d="m205.968 78.2777c-2.214.1549-6.612.4623-13.193.9225-6.552.4273-11.857.7828-15.916 1.0667-4.767.3333-9.716.6948-14.85 1.0847-5.135.3591-8.364.5849-9.686.6773-.099-1.4145-.302-4.5368-.609-9.3668s-.845-12.7494-1.615-23.7582c-.256-3.6594-.579-8.0556-.968-13.1889-.392-5.164-.768-10.3136-1.127-15.449 1.937-.1355 5.213-.3491 9.828-.6409 4.643-.3247 9.225-.6451 13.746-.9612 4.551-.3183 10.317-.7214 17.297-1.2096 6.978-.5188 11.052-.8191 12.22-.9008l1.258 17.9892c-.799.0559-2.921.2043-6.365.4451-3.447.2101-5.785.3581-7.015.4441-1.753.1226-4.35.3197-7.792.5913-3.444.2408-6.104.4268-7.98.558.054.7687.129 1.845.226 3.2288.095 1.353.167 2.3832.216 3.0905 1.907-.1334 4.476-.2975 7.707-.4926 3.259-.2279 5.75-.4021 7.472-.5225 2.091-.1462 4.336-.3032 6.734-.4709 2.397-.1985 4.518-.3622 6.363-.4912l.9 12.8692c-1.108.0774-3.291.23-6.55.458-3.262.1972-5.493.3377-6.692.4215-1.722.1205-4.181.3079-7.377.5622-3.167.2215-5.72.4-7.657.5355.05.7072.126 1.7989.229 3.2749.101 1.4453.179 2.5523.232 3.3211 1.907-.1333 4.722-.3147 8.445-.5441 3.751-.2624 6.519-.4559 8.302-.5806 2.091-.1462 4.398-.3075 6.919-.4838 2.551-.2092 4.564-.3655 6.04-.4687z"/><path d="m72.7495 17.3063c.2109 6.0382.3767 11.2298.4976 15.5746.1198 4.3141.2421 8.258.3669 11.8316.1614 4.621.3634 9.9655.6062 16.0335.2416 6.0371.4152 10.5652.5206 13.5843l-17.2895 7.0349c-6.0818-7.2212-11.5736-13.4451-16.4754-18.6718-4.9028-5.2574-8.2496-8.7957-10.0404-10.6146l-.3633.1977c.156 4.467.3532 9.6729.5917 15.6176.2384 5.9447.4028 10.2109.4932 12.7987l-23.52123.8214c-.08822-2.5262-.22074-6.7627-.39756-12.7095-.17683-5.9469-.38681-12.4015-.62994-19.3639-.1022-2.9267-.24186-6.4844-.41898-10.6731-.17819-4.2195-.37037-8.8394-.57653-13.8599l18.24704-7.4385c2.5657 2.8098 5.8025 6.2902 9.7106 10.4411 3.9377 4.1191 9.2326 9.5633 15.8847 16.3328l.2724-.1483c-.1269-3.6353-.2854-7.7321-.4755-12.2904-.19-4.5584-.3646-9.1173-.5238-13.6768z"/></g></svg>