<svg fill="none" height="115" viewBox="0 0 112 115" width="112" xmlns="http://www.w3.org/2000/svg" xmlns:xlink="http://www.w3.org/1999/xlink"><filter id="a" color-interpolation-filters="sRGB" filterUnits="userSpaceOnUse" height="112" width="112" x="0" y="3"><feFlood flood-opacity="0" result="BackgroundImageFix"/><feColorMatrix in="SourceAlpha" result="hardAlpha" type="matrix" values="0 0 0 0 0 0 0 0 0 0 0 0 0 0 0 0 0 0 127 0"/><feOffset dy="4"/><feGaussianBlur stdDeviation="2"/><feComposite in2="hardAlpha" operator="out"/><feColorMatrix type="matrix" values="0 0 0 0 0 0 0 0 0 0 0 0 0 0 0 0 0 0 0.25 0"/><feBlend in2="BackgroundImageFix" mode="normal" result="effect1_dropShadow_642_387"/><feBlend in="SourceGraphic" in2="effect1_dropShadow_642_387" mode="normal" result="shape"/></filter><g filter="url(#a)"><rect fill="#00c2ff" height="104" rx="3.33694" width="104" x="4" y="3"/></g><path d="m86.609 28.8113c0 5.0468-.0139 8.7552-.0418 11.1252-.0279 2.3422-.0418 4.7122-.0418 7.1101v8.323c.0279 2.37.0418 4.3776.0418 6.0227 0 4.6006-.8643 8.4903-2.5931 11.6689-1.7008 3.1786-3.8757 5.6741-6.5245 7.4865-3.2623 2.2306-6.4688 3.7642-9.6196 4.6006-3.1507.8644-6.8452 1.2966-11.0834 1.2966-5.2698 0-9.508-.5716-12.7145-1.7148-3.1786-1.1432-6.0087-2.6349-8.4903-4.4752-2.7883-2.0633-4.9352-4.6424-6.4409-7.7374-1.5057-3.1229-2.2585-6.9707-2.2585-11.5435 0-1.645 0-3.6526 0-6.0226.0279-2.3701.0418-5.1444.0418-8.323 0-3.0392-.0139-5.4929-.0418-7.3611 0-1.896 0-5.3813 0-10.456h22.9196c0 4.5728-.0139 8.2951-.0418 11.1671v6.65 6.65c.0279 2.0912.0418 4.2661.0418 6.5246 0 2.7325.6413 4.7958 1.9239 6.1899 1.2826 1.3942 2.9695 2.0912 5.0607 2.0912 2.1191 0 3.806-.711 5.0607-2.133 1.2548-1.422 1.8821-3.4714 1.8821-6.1481 0-2.2585 0-4.5728 0-6.9428.0279-2.3701.0419-4.4473.0419-6.2318 0-1.7009-.014-3.8897-.0419-6.5664 0-2.7046 0-6.4548 0-11.2507z" fill="#fff"/></svg>