<svg fill="none" height="65" viewBox="0 0 68 65" width="68" xmlns="http://www.w3.org/2000/svg"><path d="m67.6117 1.6677c-.0973 5.57863-.1843 9.6776-.2608 12.2968-.0761 2.5885-.1372 5.208-.1835 7.8586-.0613 3.5137-.1148 6.5804-.1605 9.2002-.015 2.6203-.0383 4.8397-.07 6.6581-.0888 5.0855-1.1193 9.3684-3.0915 12.8487-1.9415 3.4808-4.3937 6.1973-7.3566 8.1496-3.6492 2.4027-7.2232 4.036-10.7221 4.8999-3.4995.8946-7.5916 1.3011-12.2765 1.2193-5.8252-.1017-10.499-.8153-14.0213-2.1408-3.4916-1.325-6.5912-3.0286-9.2987-5.1106-3.04235-2.3346-5.36582-5.227-6.97044-8.6772-1.60409-3.481-2.362022-7.7489-2.273793-12.8035.031741-1.8185.070476-4.0376.116203-6.6574.07655-2.6193.14549-5.6857.20682-9.1993.05864-3.3595.09058-6.0721.0958-8.1376.03658-2.09587.10383-5.94852.20174-11.557974l25.33497.442225c-.0882 5.054669-.1754 9.169049-.2616 12.343049-.0549 3.1438-.0977 5.5941-.1284 7.3509-.0451 2.589-.0879 5.0392-.1283 7.3508-.0095 2.3122-.036 4.7165-.0796 7.213-.0527 3.0205.6163 5.3136 2.0072 6.8794s3.2421 2.3689 5.5537 2.4093c2.3424.0408 4.2208-.7125 5.6352-2.2602s2.1474-3.8009 2.1991-6.7598c.0435-2.4965.0882-5.0547.1339-7.6745.0766-2.6192.1321-4.9151.1665-6.8877.0328-1.8801.0596-4.2998.0805-7.2592.0521-2.9896.1245-7.13508.217-12.43633z" fill="#000"/></svg>