<svg fill="none" height="127" viewBox="0 0 127 127" width="127" xmlns="http://www.w3.org/2000/svg"><rect fill="#00c2ff" height="100.159" rx="3.33694" transform="matrix(.99862953 .05233596 -.05233596 .99862953 .595251 -.824913)" width="100.159" x="16.0487" y="10.9534"/><path d="m96.4156 38.7211c-.3614 5.1684-.6412 8.9651-.8395 11.3902-.1962 2.3966-.3802 4.8227-.552 7.2784-.2276 3.2552-.4263 6.0963-.596 8.5234-.1412 2.4291-.2706 4.4861-.3884 6.1708-.3295 4.7114-1.4932 8.6328-3.4912 11.7642-1.9695 3.1334-4.3754 5.5333-7.2178 7.1996-3.5006 2.0508-6.8942 3.3916-10.1807 4.0226-3.2886.6596-7.103.8376-11.4432.5341-5.3968-.3774-9.6961-1.2662-12.898-2.6666-3.1733-1.3983-5.9647-3.1287-8.3743-5.1909-2.7077-2.3127-4.7217-5.1077-6.042-8.3851-1.3183-3.3059-1.8137-7.3003-1.4862-11.9832.1178-1.6847.2616-3.7406.4313-6.1677.1983-2.4252.4112-5.2653.6388-8.5205.2177-3.1124.3791-5.6262.4843-7.5413.1358-1.9417.3854-5.511.7488-10.7079l23.4716 1.6413c-.3274 4.6829-.6083 8.4939-.8425 11.433-.2036 2.9125-.3624 5.1826-.4762 6.8102-.1677 2.3986-.3265 4.6686-.4762 6.8102-.1212 2.1436-.2627 4.3718-.4244 6.6847-.1957 2.7983.3133 4.9573 1.527 6.4768 1.2136 1.5196 2.8912 2.3543 5.0328 2.504 2.1701.1518 3.9486-.4556 5.3354-1.822 1.3867-1.3664 2.176-3.4202 2.3677-6.1614.1617-2.3129.3274-4.6829.4971-7.1101.1983-2.4251.3614-4.5514.4891-6.3789.1218-1.7418.2643-3.9843.4274-6.7275.1937-2.7698.4623-6.6103.8057-11.5216z" fill="#fff"/></svg>