<svg fill="none" height="80" viewBox="0 0 209 80" width="209" xmlns="http://www.w3.org/2000/svg" xmlns:xlink="http://www.w3.org/1999/xlink"><filter id="a" color-interpolation-filters="sRGB" filterUnits="userSpaceOnUse" height="75.1662" width="207.855" x=".239502" y="4.21863"><feFlood flood-opacity="0" result="BackgroundImageFix"/><feColorMatrix in="SourceAlpha" result="hardAlpha" type="matrix" values="0 0 0 0 0 0 0 0 0 0 0 0 0 0 0 0 0 0 127 0"/><feOffset dx="2" dy="2"/><feGaussianBlur stdDeviation="2"/><feComposite in2="hardAlpha" operator="out"/><feColorMatrix type="matrix" values="0 0 0 0 0 0 0 0 0 0 0 0 0 0 0 0 0 0 0.25 0"/><feBlend in2="BackgroundImageFix" mode="normal" result="effect1_dropShadow_421_117"/><feBlend in="SourceGraphic" in2="effect1_dropShadow_421_117" mode="normal" result="shape"/></filter><g fill="#fff" filter="url(#a)"><path d="m141.451 10.8185c-.195 5.5761-.353 9.6729-.475 12.2904-.122 2.5867-.228 5.2048-.321 7.8542-.123 3.512-.23 6.5773-.321 9.1959-.061 2.6197-.123 4.8383-.186 6.656-.178 5.0831-1.283 9.3474-3.316 12.7927-2.001 3.4464-4.501 6.1197-7.497 8.02-3.691 2.3387-7.293 3.9093-10.806 4.712-3.515.8334-7.613 1.1684-12.296 1.0049-5.823-.2034-10.4832-.9984-13.9819-2.3852-3.4679-1.3858-6.5373-3.1431-9.2081-5.2722-3.0011-2.3873-5.2737-5.3198-6.8179-8.7974-1.5431-3.5085-2.2264-7.789-2.05-12.8413.0635-1.8176.1409-4.0358.2324-6.6544.1222-2.6175.2447-5.6823.3673-9.1943.1173-3.3579.1965-6.0695.2378-8.1347.0732-2.0948.2077-5.9457.4034-11.55262l25.323.88432c-.176 5.0524-.335 9.1646-.477 12.3366-.109 3.1424-.195 5.5915-.256 7.3475-.0905 2.5878-.1761 5.037-.2567 7.3475-.0499 2.3116-.1184 4.7151-.2056 7.2105-.1054 3.0191.5233 5.3236 1.8873 6.9134 1.363 1.5898 3.2 2.4251 5.51 2.5058 2.342.0818 4.233-.6387 5.674-2.1615 1.441-1.5227 2.214-3.7629 2.317-6.7203.087-2.4954.176-5.0524.268-7.671.122-2.6175.218-4.9121.286-6.8838.066-1.8792.135-4.2981.208-7.2567.104-2.9883.249-7.1318.434-12.43064z"/><path d="m202.094 67.9429c-2.214.1548-6.611.4623-13.192.9225-6.552.4272-11.858.7828-15.917 1.0666-4.766.3333-9.716.6949-14.849 1.0847-5.136.3591-8.364.5849-9.687.6774-.099-1.4145-.301-4.5368-.608-9.3668-.307-4.8301-.845-12.7495-1.615-23.7583-.256-3.6593-.579-8.0556-.969-13.1888-.392-5.164-.767-10.3137-1.127-15.44907 1.938-.13547 5.214-.3491 9.829-.6409 4.643-.32469 9.225-.64509 13.745-.96118 4.551-.31825 10.317-.72143 17.298-1.20955 6.978-.51887 11.051-.81916 12.22-.90087l1.258 17.98917c-.8.0559-2.922.2043-6.366.4452-3.446.21-5.784.3581-7.014.4441-1.753.1226-4.35.3196-7.792.5912-3.444.2409-6.104.4269-7.98.558.054.7688.129 1.8451.226 3.2289.094 1.353.166 2.3831.216 3.0904 1.906-.1333 4.475-.2975 7.706-.4925 3.26-.2279 5.75-.4021 7.473-.5225 2.091-.1463 4.335-.3032 6.734-.4709 2.396-.1985 4.517-.3623 6.362-.4913l.9 12.8692c-1.107.0774-3.29.2301-6.55.458-3.262.1972-5.492.3377-6.691.4216-1.722.1204-4.181.3078-7.377.5622-3.168.2215-5.72.4-7.657.5354.049.7073.125 1.7989.229 3.275.101 1.4453.178 2.5523.232 3.3211 1.906-.1334 4.721-.3147 8.444-.5442 3.752-.2623 6.519-.4558 8.303-.5805 2.091-.1463 4.397-.3075 6.919-.4839 2.55-.2092 4.563-.3654 6.039-.4686z"/><path d="m68.8761 6.97147c.2109 6.03823.3768 11.22973.4977 15.57463.1198 4.314.2421 8.2579.3669 11.8315.1613 4.6211.3634 9.9656.6061 16.0335.2417 6.0371.4152 10.5652.5207 13.5843l-17.2896 7.0349c-6.0818-7.2212-11.5736-13.4451-16.4753-18.6718-4.9028-5.2574-8.2497-8.7956-10.0405-10.6146l-.3632.1977c.156 4.4671.3532 9.6729.5916 15.6176.2385 5.9447.4029 10.211.4932 12.7988l-23.52119.8213c-.08822-2.5261-.22074-6.7627-.39756-12.7095s-.3868-12.4015-.62994-19.3639c-.1022-2.9267-.24186-6.4843-.41897-10.673-.1782-4.2195-.37037-8.8395-.57654-13.86l18.247-7.43844c2.5657 2.8098 5.8026 6.29014 9.7106 10.44114 3.9377 4.119 9.2326 9.5633 15.8847 16.3327l.2724-.1483c-.1269-3.6352-.2854-7.732-.4754-12.2904s-.3647-9.1173-.5239-13.67675z"/></g></svg>