<svg height="512" viewBox="0 0 24 24" width="512" xmlns="http://www.w3.org/2000/svg"><path d="m7 20.75c3.2246 0 5.75-3.8433 5.75-8.75s-2.5254-8.75-5.75-8.75-5.75 3.8433-5.75 8.75 2.5254 8.75 5.75 8.75zm0-16c1.9719 0 3.6777 2.4354 4.1294 5.6008a2 2 0 1 0 0 3.2984c-.4517 3.1654-2.1575 5.6008-4.1294 5.6008-2.3037 0-4.25-3.32-4.25-7.25s1.9463-7.25 4.25-7.25zm15.75 7.25c0 4.9067-2.5254 8.75-5.75 8.75a4.7331 4.7331 0 0 1 -3.6695-1.9647 11.8282 11.8282 0 0 0 .7465-1.5843 3.65 3.65 0 0 0 2.923 2.049c1.9719 0 3.6777-2.4354 4.1294-5.6008a2 2 0 1 1 0-3.2984c-.4517-3.1654-2.1575-5.6008-4.1294-5.6008a3.65 3.65 0 0 0 -2.923 2.049 11.8282 11.8282 0 0 0 -.7465-1.5843 4.7331 4.7331 0 0 1 3.6695-1.9647c3.2246 0 5.75 3.8433 5.75 8.75z"/></svg>