<svg enable-background="new 0 0 32 32" height="512" viewBox="0 0 32 32" width="512" xmlns="http://www.w3.org/2000/svg"><g stroke="#00c2ff"><path d="m27.943 22.07-.601-1c-.779-1.298-1.191-2.784-1.191-4.298v-5.52c0-5.598-4.553-10.152-10.151-10.152s-10.151 4.554-10.151 10.151v5.52c0 1.514-.412 3-1.191 4.298l-.601 1.001c-.485.809-.498 1.781-.033 2.603.465.821 1.305 1.311 2.249 1.311h19.455c.943 0 1.784-.49 2.249-1.311.464-.821.451-1.794-.034-2.603zm-1.533 1.716c-.068.12-.27.398-.682.398h-19.456c-.413 0-.614-.278-.682-.398-.068-.119-.202-.436.01-.789l.601-1c.947-1.578 1.448-3.384 1.448-5.225v-5.52c-.001-4.606 3.746-8.352 8.351-8.352s8.352 3.747 8.352 8.352v5.52c0 1.84.5 3.647 1.448 5.225l.601 1c.211.353.077.67.009.789z"/><path d="m19.087 27.758c-.657.84-1.811 1.342-3.087 1.342s-2.43-.502-3.087-1.342c-.307-.391-.873-.46-1.264-.154s-.46.872-.154 1.264c.995 1.272 2.68 2.032 4.505 2.032s3.51-.76 4.505-2.033c.306-.392.237-.958-.154-1.264-.391-.305-.957-.235-1.264.155z"/></g></svg>