<svg fill="none" height="40" viewBox="0 0 40 40" width="40" xmlns="http://www.w3.org/2000/svg" xmlns:xlink="http://www.w3.org/1999/xlink"><clipPath id="a"><path d="m0 0h40v40h-40z"/></clipPath><mask id="b" height="40" maskUnits="userSpaceOnUse" width="40" x="0" y="0"><path d="m0 0h40v40h-40z" fill="#fff"/></mask><g clip-path="url(#a)"><g mask="url(#b)"><path clip-rule="evenodd" d="m20 3.33325c1.841 0 3.3333 1.49239 3.3333 3.33334v25.00001c0 1.841-1.4923 3.3333-3.3333 3.3333s-3.3333-1.4923-3.3333-3.3333v-25.00001c0-1.84095 1.4923-3.33334 3.3333-3.33334zm-11.66667 10.00005c1.84097 0 3.33337 1.4923 3.33337 3.3333v15c0 1.841-1.4924 3.3333-3.33337 3.3333-1.84095 0-3.33333-1.4923-3.33333-3.3333v-15c0-1.841 1.49238-3.3333 3.33333-3.3333zm26.66667 3.3333c0-1.841-1.4923-3.3333-3.3333-3.3333s-3.3334 1.4923-3.3334 3.3333v15c0 1.841 1.4924 3.3333 3.3334 3.3333s3.3333-1.4923 3.3333-3.3333z" fill="#00c2ff" fill-rule="evenodd"/></g></g></svg>