<svg enable-background="new 0 0 492.004 492.004" viewBox="0 0 492.004 492.004" xmlns="http://www.w3.org/2000/svg"><path d="m484.14 226.886-177.68-177.684c-5.072-5.072-11.832-7.856-19.04-7.856-7.216 0-13.972 2.788-19.044 7.856l-16.132 16.136c-5.068 5.064-7.86 11.828-7.86 19.04 0 7.208 2.792 14.2 7.86 19.264l103.656 103.884h-329.32c-14.848 0-26.58 11.624-26.58 26.476v22.812c0 14.852 11.732 27.648 26.58 27.648h330.496l-104.828 104.464c-5.068 5.072-7.86 11.652-7.86 18.864 0 7.204 2.792 13.88 7.86 18.948l16.132 16.084c5.072 5.072 11.828 7.836 19.044 7.836 7.208 0 13.968-2.8 19.04-7.872l177.68-177.68c5.084-5.088 7.88-11.88 7.86-19.1.016-7.244-2.776-14.04-7.864-19.12z" fill="#fff"/></svg>