<svg enable-background="new 0 0 512 512" viewBox="0 0 512 512" xmlns="http://www.w3.org/2000/svg"><path d="m256 0c-141.167 0-256 114.833-256 256s114.833 256 256 256 256-114.853 256-256-114.833-256-256-256zm0 472.341c-119.275 0-216.341-97.046-216.341-216.341s97.066-216.341 216.341-216.341c119.295 0 216.341 97.046 216.341 216.341s-97.066 216.341-216.341 216.341z"/><path d="m373.451 166.965c-8.071-7.337-20.623-6.762-27.999 1.348l-120.961 133.196-58.438-59.409c-7.714-7.813-20.246-7.932-28.039-.238-7.813 7.674-7.932 20.226-.238 28.039l73.151 74.361c3.748 3.807 8.824 5.929 14.138 5.929.119 0 .258 0 .377.02 5.473-.119 10.629-2.459 14.297-6.504l135.059-148.722c7.358-8.131 6.763-20.663-1.347-28.02z"/></svg>