<svg enable-background="new 0 0 512 512" viewBox="0 0 512 512" xmlns="http://www.w3.org/2000/svg"><circle cx="256" cy="254.272" fill="#ec407a" r="240"/><path d="m256 0c-141.152 0-256 114.848-256 256s114.848 256 256 256 256-114.848 256-256-114.848-256-256-256zm223.904 257.92c-54.208-14.304-109.792-15.968-162.752-5.056-7.232-18.048-15.04-35.808-23.424-53.344 47.904-22.4 92.192-52.768 131.04-90.304 34.272 39.328 55.232 90.592 55.232 146.784 0 .64-.096 1.248-.096 1.92zm-77.76-171.296c-36.288 35.04-77.568 63.584-122.304 84.448-23.904-45.76-51.872-89.472-83.52-130.752 19.04-5.28 38.976-8.32 59.68-8.32 55.84 0 106.88 20.672 146.144 54.624zm-237.44-34.976c32.48 41.344 60.992 85.376 85.28 131.488-67.2 25.664-140.16 35.52-213.216 26.976 14.816-70.912 63.328-129.472 127.936-158.464zm-132.704 204.352c0-4.8.416-9.504.736-14.208 18.944 2.24 37.888 3.712 56.768 3.712 60.224 0 119.392-11.776 174.848-33.376 7.68 16 14.912 32.224 21.6 48.672-78.656 23.616-148.736 73.984-195.904 145.12-35.936-39.744-58.048-92.256-58.048-149.92zm81.44 172.64c43.392-68.224 109.568-116.32 184.032-138.08 20.224 55.68 34.784 113.504 43.264 172.672-26.144 10.752-54.752 16.768-84.736 16.768-54.112 0-103.808-19.296-142.56-51.36zm257.312 19.36c-8.8-56.384-22.752-111.584-41.856-164.864 48.352-9.088 98.944-6.944 148.224 6.976-10.336 67.072-50.368 124.288-106.368 157.888z" fill="#c2185b"/></svg>