<svg enable-background="new 0 0 34 34" fill="#94a3b8" height="512" viewBox="0 0 34 34" width="512" xmlns="http://www.w3.org/2000/svg"><path d="m17 1c-5 0-9 4-9 9v4c-1.7 0-3 1.3-3 3v13c0 1.7 1.3 3 3 3h18c1.7 0 3-1.3 3-3v-13c0-1.7-1.3-3-3-3v-4c0-5-4-9-9-9zm10 16v13c0 .6-.4 1-1 1h-18c-.6 0-1-.4-1-1v-13c0-.6.4-1 1-1h1 16 1c.6 0 1 .4 1 1zm-17-3v-4c0-3.9 3.1-7 7-7s7 3.1 7 7v4z"/><path d="m17 19c-1.7 0-3 1.3-3 3 0 1.3.8 2.4 2 2.8v2.2c0 .6.4 1 1 1s1-.4 1-1v-2.2c1.2-.4 2-1.5 2-2.8 0-1.7-1.3-3-3-3zm0 4c-.6 0-1-.4-1-1s.4-1 1-1 1 .4 1 1-.4 1-1 1z"/></svg>