<svg enable-background="new 0 0 512.001 512.001" viewBox="0 0 512.001 512.001" xmlns="http://www.w3.org/2000/svg"><path fill="#fff" d="m507.608 4.395c-4.243-4.244-10.609-5.549-16.177-3.321l-482.001 192.798c-5.515 2.206-9.208 7.458-9.42 13.395-.211 5.936 3.101 11.437 8.445 14.029l190.068 92.181 92.182 190.068c2.514 5.184 7.764 8.455 13.493 8.455.178 0 .357-.003.536-.01 5.935-.211 11.189-3.904 13.394-9.419l192.8-481.998c2.228-5.572.923-11.935-3.32-16.178zm-455.514 204.723 382.626-153.049-228.029 228.027zm250.789 250.789-74.979-154.599 228.03-228.027z"/></svg>