<svg fill="none" height="116" viewBox="0 0 116 116" width="116" xmlns="http://www.w3.org/2000/svg"><path d="m100.068 22.2212v-.1087c.524-1.4904.436-3.1274-.2429-4.5536-.6792-1.4262-1.895-2.5259-3.382-3.0589l-4.8031-1.6675c-1.4906-.5185-3.1255-.4288-4.5504.2497-1.425.6786-2.5251 1.8912-3.0621 3.3753l-20.6988 59.45c-.1087.29 2.3019 13.4487 2.3019 13.4487-1.8125 5.1838-6.2169 7.25-7.7212 6.9601-.5981-.1088 0-2.5375.1269-3.2626.5256-4.2049-2.7551-6.5249-6.7788-.1631-.6162.9788-2.1387 3.2625-2.7912 3.1175s-.1813-2.3562 0-3.2081c.6162-3.9694.1268-9.2256-9.6969-.9969-3.5163 2.9363-8.265 7.0507-11.0381 6.2169-.9426-.29-2.7913-2.5012-2.2113-2.9 5.0931-3.48 12.3794-13.5575 11.3463-18.995-.1346-.8985-.5483-1.732-1.1825-2.3826-.6343-.6505-1.4571-1.0852-2.3519-1.2424-1.3474-.2837-2.7467-.1938-4.0468.2598s-2.4516 1.2537-3.3301 2.3139c-4.205 4.6763-5.6731 13.6119-4.8756 18.5782-3.5289 2.0775-7.2204 3.8657-11.0382 5.3468-.22369.0822-.42906.2075-.60435.369-.17528.1615-.31704.356-.41718.5722-.10015.2161-.15671.4501-.16646.6881-.00976.238.02749.476.1096.7.08212.224.2075.429.36899.604s.35592.317.57219.417c.21631.101.45011.157.68831.167.2381.01.4758-.028.6996-.11 3.7571-1.45 7.3935-3.1954 10.875-5.2198.3843 1.0004.9824 1.9047 1.7525 2.6498.7702.745 1.6938 1.313 2.7062 1.664 4.6581 1.396 10.0775-3.2081 14.5-6.9238 1.2144-1.0331 2.755-2.3381 3.7881-3.045 0 .3444-.3443 5.5644.9607 7.0326.2914.338.6495.6123 1.0518.8057.4023.1933.8402.3016 1.2863.318 2.5738.1269 4.35-2.3925 5.9812-4.6219-.168 1.3833.2163 2.7771 1.0694 3.8788.3495.3736.7786.6637 1.2556.8489.4769.1851.9894.2607 1.4994.2207 2.5448-.3352 4.9381-1.4001 6.8905-3.0663 1.9525-1.6662 3.3805-3.8622 4.1114-6.3227 0 0 10.295-8.845 10.4037-9.0625l19.3575-55.6619c.2175-.7975 3.6248.5075 3.2808 1.9575l-4.9845 15.0438c-.1514.4566-.1152.9548.1006 1.3847.2159.43.5937.7567 1.0503.9081.4567.1514.9548.1152 1.3848-.1006.4298-.2159.7568-.5937.9078-1.0504l4.966-15.0437c1.451-4.0963-3.262-6.6519-5.419-6.7788zm-71.4486 55.4082c2.5919-2.7369 4.5131-1.8125 4.6762-.8156.5619 2.9725-4.2956 10.875-8.8087 14.5-.1269-4.205 1.2506-10.6394 4.1325-13.6844zm61.8243-61.3169 4.785 1.6675c.2932.1017.5634.2604.7951.4669.2317.2064.4204.4566.5551.7362s.2129.583.2301.8929c.0171.3098-.0272.62-.1303.9127l-.3987 1.1238-9.28-3.2988.3988-1.1237c.2235-.5846.6688-1.0572 1.239-1.3152.5703-.258 1.2193-.2804 1.8059-.0623zm-4.5856 5.9994 9.2438 3.2262-18.5057 53.07-9.2437-3.2081zm-17.1462 63.8544-1.305-6.9057 6.7062 2.3019z" fill="#00c2ff"/></svg>