<svg fill="none" height="100" viewBox="0 0 100 100" width="100" xmlns="http://www.w3.org/2000/svg"><rect fill="#1c1c1c" height="100" rx="8.94" width="100"/><path d="m77.3754 23.4809c0 4.9838-.0127 9.2684-.0381 12.8537-.0254 3.5599-.0382 6.8147-.0382 9.7643 0 3.8141.0128 8.2259.0382 13.2351.0254 4.9839.0381 8.7217.0381 11.2137l-14.4556 5.3016c-4.8059-6.128-9.154-11.417-13.0445-15.8669-3.8904-4.4752-6.5476-7.4884-7.9716-9.0395l-.3051.1525c0 3.6871.0127 7.9844.0381 12.8919.0255 4.9076.0382 8.4293.0382 10.5652h-19.4141c0-2.085.0127-5.5814.0381-10.4889.0255-4.9076.0382-10.2347.0382-15.9814 0-2.4156-.0127-5.3525-.0382-8.8107-.0254-3.4836-.0508-7.2977-.0762-11.4425l15.2566-5.6068c2.0342 2.3902 4.6024 5.3526 7.7046 8.887 3.1276 3.5091 7.3359 8.1496 12.6249 13.9217l.2288-.1144c0-3.0005-.0127-6.3824-.0381-10.1457s-.0382-7.5266-.0382-11.2899z" fill="#fff"/></svg>