<svg width="30" height="30" viewBox="0 0 30 30" fill="none" xmlns="http://www.w3.org/2000/svg">
<g clip-path="url(#clip0_6699_266)">
<path fill-rule="evenodd" clip-rule="evenodd" d="M-0.0585938 1.94116C-0.0585938 0.836591 0.836837 -0.0588379 1.94141 -0.0588379H28.0591C29.1636 -0.0588379 30.0591 0.836593 30.0591 1.94116V28.0588C30.0591 29.1634 29.1636 30.0588 28.0591 30.0588H1.9414C0.836835 30.0588 -0.0585938 29.1634 -0.0585938 28.0588V1.94116Z" fill="#F7DF1E"/>
<path fill-rule="evenodd" clip-rule="evenodd" d="M13.4942 23.6587V13.8705H16.1295V23.6587C16.1295 27.4234 10.8589 29.6822 7.84717 25.1646L10.106 23.6587C11.2354 25.9175 13.4942 25.1646 13.4942 23.6587ZM24.7883 17.2587C23.2825 15.1881 21.4001 16.1293 21.4001 17.4469C21.4001 19.5175 27.6119 19.1411 27.6119 23.6587C27.4236 28.9293 20.0825 28.7411 17.8236 24.7881L20.0825 23.4705C21.7766 26.1058 24.7883 25.1646 24.7883 23.6587C24.6001 21.0234 18.7648 22.3411 18.7648 17.4469C18.5766 13.6822 24.2236 11.6117 26.8589 15.9411L24.7883 17.2587Z" fill="#323232"/>
</g>
<defs>
<clipPath id="clip0_6699_266">
<rect width="30" height="30" fill="white"/>
</clipPath>
</defs>
</svg>
