<svg width="800" height="209" viewBox="0 0 800 209" fill="none" xmlns="http://www.w3.org/2000/svg">
<g clip-path="url(#clip0_9147_538)">
<rect width="800" height="209" fill="white"/>
<path d="M801.08 106.133C801.676 105.537 801.676 104.57 801.08 103.974L791.364 94.2582C790.768 93.662 789.801 93.662 789.205 94.2582C788.609 94.8544 788.609 95.8211 789.205 96.4173L797.841 105.054L789.205 113.69C788.609 114.286 788.609 115.253 789.205 115.849C789.801 116.445 790.768 116.445 791.364 115.849L801.08 106.133ZM24.4277 106.58H27.4573V103.527H24.4277V106.58ZM33.5165 106.58H39.5756V103.527H33.5165V106.58ZM45.6348 106.58H51.694V103.527H45.6348V106.58ZM57.7531 106.58H63.8123V103.527H57.7531V106.58ZM69.8714 106.58H75.9306V103.527H69.8714V106.58ZM81.9898 106.58H88.0489V103.527H81.9898V106.58ZM94.1081 106.58H100.167V103.527H94.1081V106.58ZM106.226 106.58H112.286V103.527H106.226V106.58ZM118.345 106.58H124.404V103.527H118.345V106.58ZM130.463 106.58H136.522V103.527H130.463V106.58ZM142.581 106.58H148.641V103.527H142.581V106.58ZM154.7 106.58H160.759V103.527H154.7V106.58ZM166.818 106.58H172.877V103.527H166.818V106.58ZM178.936 106.58H184.995V103.527H178.936V106.58ZM191.055 106.58H197.114V103.527H191.055V106.58ZM203.173 106.58H209.232V103.527H203.173V106.58ZM215.291 106.58H221.35V103.527H215.291V106.58ZM227.41 106.58H233.469V103.527H227.41V106.58ZM239.528 106.58H245.587V103.527H239.528V106.58ZM251.646 106.58H257.705V103.527H251.646V106.58ZM263.765 106.58H269.824V103.527H263.765V106.58ZM275.883 106.58H281.942V103.527H275.883V106.58ZM288.001 106.58H294.06V103.527H288.001V106.58ZM300.12 106.58H306.179V103.527H300.12V106.58ZM312.238 106.58H318.297V103.527H312.238V106.58ZM324.356 106.58H330.415V103.527H324.356V106.58ZM336.475 106.58H342.534V103.527H336.475V106.58ZM348.593 106.58H354.652V103.527H348.593V106.58ZM360.711 106.58H366.77V103.527H360.711V106.58ZM372.83 106.58H378.889V103.527H372.83V106.58ZM384.948 106.58H391.007V103.527H384.948V106.58ZM397.066 106.58H403.125V103.527H397.066V106.58ZM409.185 106.58H415.244V103.527H409.185V106.58ZM421.303 106.58H427.362V103.527H421.303V106.58ZM433.421 106.58H439.48V103.527H433.421V106.58ZM445.54 106.58H451.599V103.527H445.54V106.58ZM457.658 106.58H463.717V103.527H457.658V106.58ZM469.776 106.58H475.836V103.527H469.776V106.58ZM481.895 106.58H487.954V103.527H481.895V106.58ZM494.013 106.58H500.072V103.527H494.013V106.58ZM506.131 106.58H512.191V103.527H506.131V106.58ZM518.25 106.58H524.309V103.527H518.25V106.58ZM530.368 106.58H536.427V103.527H530.368V106.58ZM542.486 106.58H548.546V103.527H542.486V106.58ZM554.605 106.58H560.664V103.527H554.605V106.58ZM566.723 106.58H572.782V103.527H566.723V106.58ZM578.841 106.58H584.901V103.527H578.841V106.58ZM590.96 106.58H597.019V103.527H590.96V106.58ZM603.078 106.58H609.137V103.527H603.078V106.58ZM615.196 106.58H621.255V103.527H615.196V106.58ZM627.314 106.58H633.374V103.527H627.314V106.58ZM639.433 106.58H645.492V103.527H639.433V106.58ZM651.551 106.58H657.61V103.527H651.551V106.58ZM663.669 106.58H669.728V103.527H663.669V106.58ZM675.788 106.58H681.847V103.527H675.788V106.58ZM687.906 106.58H693.965V103.527H687.906V106.58ZM700.024 106.58H706.083V103.527H700.024V106.58ZM712.143 106.58H718.202V103.527H712.143V106.58ZM724.261 106.58H730.32V103.527H724.261V106.58ZM736.379 106.58H742.438V103.527H736.379V106.58ZM748.497 106.58H754.556V103.527H748.497V106.58ZM760.616 106.58H766.675V103.527H760.616V106.58ZM772.734 106.58H778.793V103.527H772.734V106.58ZM784.852 106.58H790.911V103.527H784.852V106.58ZM796.971 106.58H800V103.527H796.971V106.58Z" fill="#BCCACF"/>
<line x1="-29.0078" y1="105.816" x2="158.778" y2="105.816" stroke="#00C2FF" stroke-width="4.58015"/>
<path d="M24.9889 55.3506H22.8762V41.3664H24.8435L32.0924 51.6777H32.17V41.3664H34.2826V55.3506H32.325L25.0761 45.049H24.9889V55.3506ZM45.3595 45.1556V55.3506H43.3535V53.6256H43.305C42.7429 54.8466 41.706 55.5347 40.1457 55.5347C37.9265 55.5347 36.5697 54.0907 36.5697 51.7552V45.1556H38.663V51.3482C38.663 52.8987 39.3995 53.7322 40.8435 53.7322C42.3553 53.7322 43.2662 52.6855 43.2662 51.0962V45.1556H45.3595ZM54.1881 52.356H56.1748C55.884 54.2167 54.1203 55.5444 51.7847 55.5444C48.7902 55.5444 46.9779 53.519 46.9779 50.3015C46.9779 47.1035 48.8192 44.9714 51.6975 44.9714C54.5273 44.9714 56.2911 46.9678 56.2911 50.0593V50.7764H49.0906V50.9024C49.0906 52.6758 50.1566 53.8485 51.8332 53.8485C53.0252 53.8485 53.907 53.2476 54.1881 52.356ZM51.6975 46.6577C50.2341 46.6577 49.2069 47.7722 49.1003 49.313H54.1978C54.1493 47.7528 53.1608 46.6577 51.6975 46.6577ZM65.5363 55.3506V43.5178H65.4879L61.8343 46.0375V43.983L65.517 41.3664H67.6587V55.3506H65.5363ZM72.1844 55.4572C71.477 55.4572 70.9149 54.8951 70.9149 54.1877C70.9149 53.4802 71.477 52.9181 72.1844 52.9181C72.8919 52.9181 73.454 53.4802 73.454 54.1877C73.454 54.8951 72.8919 55.4572 72.1844 55.4572ZM80.8773 55.6122C77.5048 55.6122 75.5182 52.8018 75.5182 48.3439C75.5182 43.9151 77.5339 41.1047 80.8773 41.1047C84.2207 41.1047 86.2171 43.9054 86.2171 48.3342C86.2171 52.7921 84.2401 55.6122 80.8773 55.6122ZM80.8773 53.7903C82.8931 53.7903 84.0269 51.7358 84.0269 48.3439C84.0269 45.0005 82.8737 42.9266 80.8773 42.9266C78.881 42.9266 77.718 45.0102 77.718 48.3439C77.718 51.7261 78.8519 53.7903 80.8773 53.7903ZM92.9039 49.8557C92.9039 46.4639 93.7955 43.731 95.7047 41.3664H97.546C96.1505 42.9945 95.0554 46.6577 95.0554 49.8461C95.0554 53.0344 96.1505 56.7073 97.546 58.3354H95.7047C93.7955 55.9611 92.9039 53.2282 92.9039 49.8557ZM104.378 55.525C102.886 55.525 101.733 54.7982 101.103 53.6159H101.064V55.3506H99.0287V41.3664H101.122V46.8903H101.17C101.781 45.708 102.944 44.9908 104.388 44.9908C106.956 44.9908 108.633 47.0259 108.633 50.2531C108.633 53.4899 106.966 55.525 104.378 55.525ZM103.816 46.7546C102.227 46.7546 101.112 48.1501 101.112 50.2531C101.112 52.3754 102.227 53.7516 103.816 53.7516C105.464 53.7516 106.481 52.4142 106.481 50.2531C106.481 48.1114 105.464 46.7546 103.816 46.7546ZM117.025 52.356H119.012C118.721 54.2167 116.957 55.5444 114.622 55.5444C111.627 55.5444 109.815 53.519 109.815 50.3015C109.815 47.1035 111.656 44.9714 114.534 44.9714C117.364 44.9714 119.128 46.9678 119.128 50.0593V50.7764H111.928V50.9024C111.928 52.6758 112.994 53.8485 114.67 53.8485C115.862 53.8485 116.744 53.2476 117.025 52.356ZM114.534 46.6577C113.071 46.6577 112.044 47.7722 111.937 49.313H117.035C116.986 47.7528 115.998 46.6577 114.534 46.6577ZM121.367 42.7425H123.47V45.1556H125.408V46.8127H123.47V52.4336C123.47 53.3155 123.857 53.7128 124.71 53.7128C124.923 53.7128 125.262 53.6934 125.398 53.6643V55.3215C125.166 55.3797 124.7 55.4184 124.235 55.4184C122.171 55.4184 121.367 54.6334 121.367 52.6662V46.8127H119.884V45.1556H121.367V42.7425ZM129.963 55.525C127.966 55.525 126.571 54.2846 126.571 52.453C126.571 50.6698 127.937 49.5747 130.36 49.439L133.151 49.2743V48.4893C133.151 47.3554 132.385 46.6771 131.106 46.6771C129.895 46.6771 129.139 47.2585 128.955 48.1695H126.978C127.094 46.3282 128.664 44.9714 131.184 44.9714C133.655 44.9714 135.235 46.2797 135.235 48.3246V55.3506H133.229V53.674H133.18C132.589 54.8079 131.3 55.525 129.963 55.525ZM130.544 53.8679C132.007 53.8679 133.151 52.86 133.151 51.5323V50.7279L130.641 50.883C129.391 50.9702 128.683 51.5226 128.683 52.3948C128.683 53.2864 129.42 53.8679 130.544 53.8679ZM141.243 49.8557C141.243 53.2379 140.342 55.9708 138.442 58.3354H136.601C137.997 56.717 139.092 53.0441 139.092 49.8557C139.092 46.6674 137.997 42.9945 136.601 41.3664H138.442C140.351 43.7407 141.243 46.4736 141.243 49.8557Z" fill="black"/>
<path d="M51.2181 168.854L50.0373 165.366H45.1172L43.9364 168.854H41.8521L46.5127 155.946H48.6776L53.3382 168.854H51.2181ZM47.5504 158.093L45.6271 163.755H49.5274L47.6041 158.093H47.5504ZM62.3107 159.444V168.854H60.4589V167.262H60.4142C59.8953 168.389 58.9382 169.024 57.4979 169.024C55.4494 169.024 54.197 167.692 54.197 165.536V159.444H56.1292V165.16C56.1292 166.591 56.8091 167.361 58.142 167.361C59.5375 167.361 60.3784 166.394 60.3784 164.927V159.444H62.3107ZM68.2505 172.397C66.032 172.397 64.386 171.216 64.1445 169.588H66.0857C66.363 170.375 67.2218 170.894 68.3221 170.894C69.8339 170.894 70.7285 170.035 70.7285 168.747V167.2H70.6927C70.1649 168.219 69.0557 168.89 67.7138 168.89C65.3522 168.89 63.8046 167.047 63.8046 164.113C63.8046 161.152 65.3432 159.292 67.7585 159.292C69.0914 159.292 70.1828 159.963 70.7553 161.054H70.7911V159.444H72.6697V168.685C72.6697 170.93 70.9342 172.397 68.2505 172.397ZM68.2327 167.289C69.7445 167.289 70.7374 166.063 70.7374 164.122C70.7374 162.19 69.7445 160.92 68.2327 160.92C66.7477 160.92 65.7816 162.163 65.7816 164.122C65.7816 166.09 66.7477 167.289 68.2327 167.289ZM78.2428 159.748C78.2428 157.404 80.1393 155.704 82.7335 155.704C85.2651 155.704 86.9737 157.324 86.9737 159.354C86.9737 160.839 86.276 161.868 83.968 164.176L81.0338 167.119V167.164H87.1795V168.854H78.3501V167.477L82.9035 162.888C84.6031 161.152 84.9967 160.49 84.9967 159.479C84.9967 158.29 84.1022 157.359 82.7335 157.359C81.2575 157.359 80.1393 158.37 80.1393 159.748H78.2428ZM93.665 169.096C90.552 169.096 88.7181 166.502 88.7181 162.387C88.7181 158.299 90.5788 155.704 93.665 155.704C96.7513 155.704 98.5941 158.29 98.5941 162.378C98.5941 166.493 96.7692 169.096 93.665 169.096ZM93.665 167.414C95.5257 167.414 96.5723 165.518 96.5723 162.387C96.5723 159.301 95.5078 157.386 93.665 157.386C91.8222 157.386 90.7488 159.31 90.7488 162.387C90.7488 165.509 91.7954 167.414 93.665 167.414ZM100.124 159.748C100.124 157.404 102.02 155.704 104.614 155.704C107.146 155.704 108.855 157.324 108.855 159.354C108.855 160.839 108.157 161.868 105.849 164.176L102.915 167.119V167.164H109.06V168.854H100.231V167.477L104.784 162.888C106.484 161.152 106.878 160.49 106.878 159.479C106.878 158.29 105.983 157.359 104.614 157.359C103.138 157.359 102.02 158.37 102.02 159.748H100.124ZM116.602 168.854V166.287H110.143V164.543C111.252 162.467 112.728 160.15 115.626 155.946H118.525V164.605H120.305V166.287H118.525V168.854H116.602ZM112.004 164.578V164.632H116.619V157.503H116.584C114.347 160.705 113.032 162.745 112.004 164.578Z" fill="#95A1A6"/>
<rect x="69.4668" y="93.6025" width="22.9008" height="22.9008" rx="11.4504" fill="#00C2FF" stroke="#00C2FF" stroke-width="4.58015"/>
<path d="M269.978 55.3506H267.807V43.2367H263.524V41.3664H274.252V43.2367H269.978V55.3506ZM280.028 52.356H282.014C281.723 54.2167 279.96 55.5444 277.624 55.5444C274.63 55.5444 272.817 53.519 272.817 50.3015C272.817 47.1035 274.659 44.9714 277.537 44.9714C280.367 44.9714 282.131 46.9678 282.131 50.0593V50.7764H274.93V50.9024C274.93 52.6758 275.996 53.8485 277.673 53.8485C278.865 53.8485 279.747 53.2476 280.028 52.356ZM277.537 46.6577C276.074 46.6577 275.046 47.7722 274.94 49.313H280.037C279.989 47.7528 279 46.6577 277.537 46.6577ZM283.759 55.3506V45.1556H285.755V46.8709H285.803C286.259 45.737 287.325 44.9811 288.701 44.9811C290.116 44.9811 291.143 45.708 291.55 46.9775H291.599C292.122 45.737 293.324 44.9811 294.777 44.9811C296.793 44.9811 298.111 46.3185 298.111 48.3439V55.3506H296.008V48.8479C296.008 47.5299 295.301 46.774 294.06 46.774C292.82 46.774 291.957 47.6946 291.957 48.9835V55.3506H289.903V48.6928C289.903 47.5202 289.157 46.774 287.974 46.774C286.734 46.774 285.852 47.7431 285.852 49.0514V55.3506H283.759ZM305.447 44.9908C308.035 44.9908 309.74 47.0259 309.74 50.2531C309.74 53.4802 308.044 55.525 305.486 55.525C304.023 55.525 302.86 54.8079 302.278 53.674H302.23V58.7231H300.137V45.1556H302.162V46.9097H302.201C302.802 45.737 303.974 44.9908 305.447 44.9908ZM304.895 53.7516C306.552 53.7516 307.589 52.3948 307.589 50.2531C307.589 48.121 306.552 46.7546 304.895 46.7546C303.296 46.7546 302.22 48.1501 302.22 50.2531C302.22 52.3754 303.286 53.7516 304.895 53.7516ZM311.436 55.3506V41.3664H313.53V55.3506H311.436ZM318.666 55.525C316.67 55.525 315.274 54.2846 315.274 52.453C315.274 50.6698 316.64 49.5747 319.063 49.439L321.854 49.2743V48.4893C321.854 47.3554 321.089 46.6771 319.809 46.6771C318.598 46.6771 317.842 47.2585 317.658 48.1695H315.681C315.797 46.3282 317.367 44.9714 319.887 44.9714C322.358 44.9714 323.938 46.2797 323.938 48.3246V55.3506H321.932V53.674H321.883C321.292 54.8079 320.003 55.525 318.666 55.525ZM319.247 53.8679C320.711 53.8679 321.854 52.86 321.854 51.5323V50.7279L319.344 50.883C318.094 50.9702 317.387 51.5226 317.387 52.3948C317.387 53.2864 318.123 53.8679 319.247 53.8679ZM326.583 42.7425H328.686V45.1556H330.625V46.8127H328.686V52.4336C328.686 53.3155 329.074 53.7128 329.927 53.7128C330.14 53.7128 330.479 53.6934 330.615 53.6643V55.3215C330.382 55.3797 329.917 55.4184 329.452 55.4184C327.388 55.4184 326.583 54.6334 326.583 52.6662V46.8127H325.101V45.1556H326.583V42.7425ZM338.852 52.356H340.839C340.548 54.2167 338.785 55.5444 336.449 55.5444C333.454 55.5444 331.642 53.519 331.642 50.3015C331.642 47.1035 333.484 44.9714 336.362 44.9714C339.192 44.9714 340.955 46.9678 340.955 50.0593V50.7764H333.755V50.9024C333.755 52.6758 334.821 53.8485 336.497 53.8485C337.689 53.8485 338.571 53.2476 338.852 52.356ZM336.362 46.6577C334.898 46.6577 333.871 47.7722 333.765 49.313H338.862C338.814 47.7528 337.825 46.6577 336.362 46.6577ZM342.399 48.0435C342.399 46.2216 343.989 44.9714 346.334 44.9714C348.708 44.9714 350.249 46.2894 350.317 48.1695H348.35C348.233 47.181 347.507 46.5608 346.334 46.5608C345.2 46.5608 344.444 47.1132 344.444 47.9272C344.444 48.5668 344.909 49.0029 346.014 49.2549L347.671 49.6328C349.755 50.1174 350.55 50.9315 350.55 52.4045C350.55 54.2652 348.815 55.5444 346.411 55.5444C343.863 55.5444 342.331 54.2943 342.138 52.356H344.212C344.405 53.4221 345.132 53.9454 346.411 53.9454C347.671 53.9454 348.447 53.4221 348.447 52.5886C348.447 51.9296 348.069 51.542 346.954 51.29L345.297 50.9024C343.359 50.4566 342.399 49.5262 342.399 48.0435Z" fill="black"/>
<path d="M270.337 168.854H268.387V155.946H270.203L276.894 165.464H276.966V155.946H278.916V168.854H277.109L270.418 159.345H270.337V168.854ZM285.115 169.033C282.423 169.033 280.652 167.182 280.652 164.149C280.652 161.125 282.432 159.274 285.115 159.274C287.799 159.274 289.579 161.125 289.579 164.149C289.579 167.182 287.808 169.033 285.115 169.033ZM285.115 167.441C286.636 167.441 287.611 166.242 287.611 164.149C287.611 162.065 286.627 160.866 285.115 160.866C283.604 160.866 282.62 162.065 282.62 164.149C282.62 166.242 283.604 167.441 285.115 167.441ZM298.856 159.444L295.483 168.854H293.408L290.018 159.444H292.075L294.437 166.967H294.473L296.834 159.444H298.856ZM303.624 159.748C303.624 157.404 305.52 155.704 308.115 155.704C310.646 155.704 312.355 157.324 312.355 159.354C312.355 160.839 311.657 161.868 309.349 164.176L306.415 167.119V167.164H312.561V168.854H303.731V167.477L308.285 162.888C309.984 161.152 310.378 160.49 310.378 159.479C310.378 158.29 309.483 157.359 308.115 157.359C306.639 157.359 305.52 158.37 305.52 159.748H303.624ZM319.046 169.096C315.933 169.096 314.099 166.502 314.099 162.387C314.099 158.299 315.96 155.704 319.046 155.704C322.132 155.704 323.975 158.29 323.975 162.378C323.975 166.493 322.15 169.096 319.046 169.096ZM319.046 167.414C320.907 167.414 321.953 165.518 321.953 162.387C321.953 159.301 320.889 157.386 319.046 157.386C317.203 157.386 316.13 159.31 316.13 162.387C316.13 165.509 317.176 167.414 319.046 167.414ZM325.505 159.748C325.505 157.404 327.401 155.704 329.996 155.704C332.527 155.704 334.236 157.324 334.236 159.354C334.236 160.839 333.538 161.868 331.23 164.176L328.296 167.119V167.164H334.442V168.854H325.612V167.477L330.166 162.888C331.865 161.152 332.259 160.49 332.259 159.479C332.259 158.29 331.364 157.359 329.996 157.359C328.52 157.359 327.401 158.37 327.401 159.748H325.505ZM341.983 168.854V166.287H335.524V164.543C336.633 162.467 338.109 160.15 341.008 155.946H343.906V164.605H345.686V166.287H343.906V168.854H341.983ZM337.385 164.578V164.632H342.001V157.503H341.965C339.728 160.705 338.413 162.745 337.385 164.578Z" fill="#95A1A6"/>
<rect x="295.419" y="93.6025" width="22.9008" height="22.9008" rx="11.4504" fill="white" stroke="black" stroke-width="4.58015"/>
<path d="M466.711 51.5129H468.823C469.017 52.8987 470.335 53.7322 472.196 53.7322C473.969 53.7322 475.239 52.8212 475.239 51.5711C475.239 50.4857 474.502 49.8073 472.632 49.4003L471.11 49.0805C468.31 48.4893 467.04 47.1907 467.04 45.175C467.04 42.7813 469.143 41.1338 472.118 41.1338C475.084 41.1338 477.109 42.8103 477.177 45.2525H475.074C474.938 43.8473 473.785 42.9848 472.089 42.9848C470.451 42.9848 469.25 43.7794 469.25 45.0587C469.25 46.0762 469.967 46.7546 471.779 47.1422L473.31 47.462C476.237 48.0823 477.439 49.2549 477.439 51.29C477.439 53.926 475.365 55.5832 472.109 55.5832C468.949 55.5832 466.846 54.0035 466.711 51.5129ZM479.396 41.3664H484.639C487.353 41.3664 489.242 43.2367 489.242 45.9599C489.242 48.6928 487.314 50.5729 484.571 50.5729H481.567V55.3506H479.396V41.3664ZM481.567 43.198V48.751H484.058C485.947 48.751 487.023 47.7334 487.023 45.9696C487.023 44.2058 485.947 43.198 484.067 43.198H481.567ZM499.089 55.3506L497.809 51.5711H492.479L491.2 55.3506H488.942L493.991 41.3664H496.336L501.385 55.3506H499.089ZM495.115 43.6922L493.032 49.8267H497.257L495.173 43.6922H495.115ZM506.522 48.0435C506.522 46.2216 508.111 44.9714 510.456 44.9714C512.83 44.9714 514.371 46.2894 514.439 48.1695H512.472C512.356 47.181 511.629 46.5608 510.456 46.5608C509.322 46.5608 508.566 47.1132 508.566 47.9272C508.566 48.5668 509.032 49.0029 510.136 49.2549L511.794 49.6328C513.877 50.1174 514.672 50.9315 514.672 52.4045C514.672 54.2652 512.937 55.5444 510.534 55.5444C507.985 55.5444 506.454 54.2943 506.26 52.356H508.334C508.528 53.4221 509.254 53.9454 510.534 53.9454C511.794 53.9454 512.569 53.4221 512.569 52.5886C512.569 51.9296 512.191 51.542 511.076 51.29L509.419 50.9024C507.481 50.4566 506.522 49.5262 506.522 48.0435ZM516.91 42.7425H519.013V45.1556H520.952V46.8127H519.013V52.4336C519.013 53.3155 519.401 53.7128 520.254 53.7128C520.467 53.7128 520.806 53.6934 520.942 53.6643V55.3215C520.709 55.3797 520.244 55.4184 519.779 55.4184C517.715 55.4184 516.91 54.6334 516.91 52.6662V46.8127H515.428V45.1556H516.91V42.7425ZM531.418 45.1556V55.3506H529.412V53.6256H529.363C528.801 54.8466 527.764 55.5347 526.204 55.5347C523.985 55.5347 522.628 54.0907 522.628 51.7552V45.1556H524.721V51.3482C524.721 52.8987 525.458 53.7322 526.902 53.7322C528.414 53.7322 529.325 52.6855 529.325 51.0962V45.1556H531.418ZM534.102 55.3506V46.8127H532.697V45.175H534.102V44.1768C534.102 42.1998 535.033 41.2694 537.107 41.2694C537.533 41.2694 538.008 41.3179 538.279 41.3664V42.9169C538.076 42.8782 537.795 42.8588 537.514 42.8588C536.603 42.8588 536.176 43.3143 536.176 44.2155V45.175H538.241V46.8127H536.205V55.3506H534.102ZM540.499 55.3506V46.8127H539.093V45.175H540.499V44.1768C540.499 42.1998 541.429 41.2694 543.503 41.2694C543.929 41.2694 544.404 41.3179 544.675 41.3664V42.9169C544.472 42.8782 544.191 42.8588 543.91 42.8588C542.999 42.8588 542.572 43.3143 542.572 44.2155V45.175H544.637V46.8127H542.601V55.3506H540.499Z" fill="black"/>
<path d="M467.934 165.545H469.902C469.929 166.618 470.707 167.352 471.826 167.352C473.141 167.352 473.856 166.564 473.856 165.088V155.946H475.86V165.097C475.86 167.656 474.357 169.141 471.843 169.141C469.518 169.141 467.934 167.692 467.934 165.545ZM480.789 169.016C478.946 169.016 477.658 167.87 477.658 166.18C477.658 164.534 478.919 163.523 481.156 163.398L483.732 163.246V162.521C483.732 161.474 483.025 160.848 481.845 160.848C480.726 160.848 480.029 161.385 479.859 162.226H478.034C478.141 160.526 479.59 159.274 481.916 159.274C484.197 159.274 485.656 160.481 485.656 162.369V168.854H483.804V167.307H483.759C483.213 168.354 482.024 169.016 480.789 169.016ZM481.326 167.486C482.677 167.486 483.732 166.555 483.732 165.33V164.587L481.415 164.731C480.261 164.811 479.608 165.321 479.608 166.126C479.608 166.949 480.288 167.486 481.326 167.486ZM487.534 168.854V159.444H489.377V161.018H489.422C489.932 159.945 490.933 159.283 492.383 159.283C494.458 159.283 495.648 160.607 495.648 162.763V168.854H493.707V163.138C493.707 161.725 493.045 160.947 491.703 160.947C490.343 160.947 489.466 161.913 489.466 163.371V168.854H487.534ZM501.176 159.748C501.176 157.404 503.073 155.704 505.667 155.704C508.198 155.704 509.907 157.324 509.907 159.354C509.907 160.839 509.209 161.868 506.901 164.176L503.967 167.119V167.164H510.113V168.854H501.283V167.477L505.837 162.888C507.536 161.152 507.93 160.49 507.93 159.479C507.93 158.29 507.036 157.359 505.667 157.359C504.191 157.359 503.073 158.37 503.073 159.748H501.176ZM516.598 169.096C513.485 169.096 511.651 166.502 511.651 162.387C511.651 158.299 513.512 155.704 516.598 155.704C519.685 155.704 521.527 158.29 521.527 162.378C521.527 166.493 519.702 169.096 516.598 169.096ZM516.598 167.414C518.459 167.414 519.506 165.518 519.506 162.387C519.506 159.301 518.441 157.386 516.598 157.386C514.756 157.386 513.682 159.31 513.682 162.387C513.682 165.509 514.729 167.414 516.598 167.414ZM523.057 159.748C523.057 157.404 524.954 155.704 527.548 155.704C530.079 155.704 531.788 157.324 531.788 159.354C531.788 160.839 531.09 161.868 528.782 164.176L525.848 167.119V167.164H531.994V168.854H523.164V167.477L527.718 162.888C529.417 161.152 529.811 160.49 529.811 159.479C529.811 158.29 528.916 157.359 527.548 157.359C526.072 157.359 524.954 158.37 524.954 159.748H523.057ZM538.39 169.096C535.814 169.096 533.935 167.522 533.819 165.267H535.733C535.876 166.547 536.968 167.423 538.408 167.423C540.045 167.423 541.172 166.287 541.172 164.677C541.172 163.085 540.036 161.948 538.426 161.948C537.272 161.948 536.35 162.44 535.805 163.389H534.051L534.686 155.946H542.38V157.637H536.306L535.912 161.725H535.957C536.538 160.857 537.612 160.365 538.882 160.365C541.351 160.365 543.131 162.154 543.131 164.623C543.131 167.262 541.181 169.096 538.39 169.096Z" fill="#95A1A6"/>
<rect x="493.894" y="93.6025" width="22.9008" height="22.9008" rx="11.4504" fill="white" stroke="black" stroke-width="4.58015"/>
<path d="M666.892 55.5832C662.967 55.5832 660.486 52.8115 660.486 48.3536C660.486 43.9248 662.986 41.1338 666.892 41.1338C670.061 41.1338 672.455 43.0817 672.823 45.9987H670.671C670.284 44.2058 668.791 43.0332 666.892 43.0332C664.353 43.0332 662.705 45.1168 662.705 48.3536C662.705 51.6195 664.333 53.6837 666.902 53.6837C668.849 53.6837 670.235 52.6855 670.671 50.9993H672.832C672.299 53.8872 670.109 55.5832 666.892 55.5832ZM674.616 55.3506V41.3664H676.709V55.3506H674.616ZM683.241 55.5444C680.324 55.5444 678.405 53.5384 678.405 50.2531C678.405 46.9775 680.333 44.9714 683.241 44.9714C686.148 44.9714 688.077 46.9775 688.077 50.2531C688.077 53.5384 686.158 55.5444 683.241 55.5444ZM683.241 53.8194C684.888 53.8194 685.945 52.5208 685.945 50.2531C685.945 47.9951 684.878 46.6965 683.241 46.6965C681.603 46.6965 680.537 47.9951 680.537 50.2531C680.537 52.5208 681.603 53.8194 683.241 53.8194ZM698.436 45.1556V55.3506H696.43V53.6256H696.382C695.82 54.8466 694.783 55.5347 693.223 55.5347C691.003 55.5347 689.647 54.0907 689.647 51.7552V45.1556H691.74V51.3482C691.74 52.8987 692.476 53.7322 693.92 53.7322C695.432 53.7322 696.343 52.6855 696.343 51.0962V45.1556H698.436ZM704.338 55.525C701.76 55.525 700.055 53.4705 700.055 50.2531C700.055 47.0356 701.76 44.9908 704.319 44.9908C705.782 44.9908 706.945 45.7273 707.517 46.8515H707.556V41.3664H709.659V55.3506H707.623V53.6159H707.585C706.984 54.7788 705.821 55.525 704.338 55.525ZM704.891 46.7546C703.233 46.7546 702.196 48.1114 702.196 50.2531C702.196 52.4045 703.233 53.7516 704.891 53.7516C706.499 53.7516 707.575 52.3851 707.575 50.2531C707.575 48.1404 706.499 46.7546 704.891 46.7546ZM715.657 48.0435C715.657 46.2216 717.247 44.9714 719.592 44.9714C721.966 44.9714 723.507 46.2894 723.575 48.1695H721.608C721.491 47.181 720.765 46.5608 719.592 46.5608C718.458 46.5608 717.702 47.1132 717.702 47.9272C717.702 48.5668 718.167 49.0029 719.272 49.2549L720.929 49.6328C723.013 50.1174 723.808 50.9315 723.808 52.4045C723.808 54.2652 722.073 55.5444 719.669 55.5444C717.121 55.5444 715.59 54.2943 715.396 52.356H717.47C717.663 53.4221 718.39 53.9454 719.669 53.9454C720.929 53.9454 721.705 53.4221 721.705 52.5886C721.705 51.9296 721.327 51.542 720.212 51.29L718.555 50.9024C716.617 50.4566 715.657 49.5262 715.657 48.0435ZM726.046 42.7425H728.149V45.1556H730.087V46.8127H728.149V52.4336C728.149 53.3155 728.537 53.7128 729.39 53.7128C729.603 53.7128 729.942 53.6934 730.078 53.6643V55.3215C729.845 55.3797 729.38 55.4184 728.915 55.4184C726.851 55.4184 726.046 54.6334 726.046 52.6662V46.8127H724.563V45.1556H726.046V42.7425ZM740.554 45.1556V55.3506H738.548V53.6256H738.499C737.937 54.8466 736.9 55.5347 735.34 55.5347C733.121 55.5347 731.764 54.0907 731.764 51.7552V45.1556H733.857V51.3482C733.857 52.8987 734.594 53.7322 736.038 53.7322C737.55 53.7322 738.46 52.6855 738.46 51.0962V45.1556H740.554ZM743.238 55.3506V46.8127H741.833V45.175H743.238V44.1768C743.238 42.1998 744.169 41.2694 746.242 41.2694C746.669 41.2694 747.144 41.3179 747.415 41.3664V42.9169C747.212 42.8782 746.93 42.8588 746.649 42.8588C745.738 42.8588 745.312 43.3143 745.312 44.2155V45.175H747.376V46.8127H745.341V55.3506H743.238ZM749.634 55.3506V46.8127H748.229V45.175H749.634V44.1768C749.634 42.1998 750.565 41.2694 752.639 41.2694C753.065 41.2694 753.54 41.3179 753.811 41.3664V42.9169C753.608 42.8782 753.327 42.8588 753.046 42.8588C752.135 42.8588 751.708 43.3143 751.708 44.2155V45.175H753.772V46.8127H751.737V55.3506H749.634Z" fill="black"/>
<path d="M678.541 168.854L677.361 165.366H672.44L671.26 168.854H669.175L673.836 155.946H676.001L680.661 168.854H678.541ZM674.874 158.093L672.95 163.755H676.851L674.927 158.093H674.874ZM686.753 159.292C689.142 159.292 690.716 161.17 690.716 164.149C690.716 167.128 689.151 169.016 686.789 169.016C685.438 169.016 684.365 168.354 683.828 167.307H683.783V171.968H681.851V159.444H683.721V161.063H683.757C684.311 159.98 685.394 159.292 686.753 159.292ZM686.244 167.378C687.773 167.378 688.73 166.126 688.73 164.149C688.73 162.181 687.773 160.92 686.244 160.92C684.768 160.92 683.775 162.208 683.775 164.149C683.775 166.108 684.759 167.378 686.244 167.378ZM692.21 168.854V159.444H694.053V161.045H694.098C694.411 159.945 695.252 159.292 696.361 159.292C696.638 159.292 696.88 159.336 697.023 159.363V161.161C696.871 161.099 696.531 161.054 696.155 161.054C694.912 161.054 694.143 161.886 694.143 163.219V168.854H692.21ZM701.88 159.748C701.88 157.404 703.777 155.704 706.371 155.704C708.903 155.704 710.611 157.324 710.611 159.354C710.611 160.839 709.914 161.868 707.606 164.176L704.671 167.119V167.164H710.817V168.854H701.988V167.477L706.541 162.888C708.241 161.152 708.634 160.49 708.634 159.479C708.634 158.29 707.74 157.359 706.371 157.359C704.895 157.359 703.777 158.37 703.777 159.748H701.88ZM717.303 169.096C714.19 169.096 712.356 166.502 712.356 162.387C712.356 158.299 714.216 155.704 717.303 155.704C720.389 155.704 722.232 158.29 722.232 162.378C722.232 166.493 720.407 169.096 717.303 169.096ZM717.303 167.414C719.163 167.414 720.21 165.518 720.21 162.387C720.21 159.301 719.145 157.386 717.303 157.386C715.46 157.386 714.386 159.31 714.386 162.387C714.386 165.509 715.433 167.414 717.303 167.414ZM723.761 159.748C723.761 157.404 725.658 155.704 728.252 155.704C730.784 155.704 732.492 157.324 732.492 159.354C732.492 160.839 731.795 161.868 729.487 164.176L726.552 167.119V167.164H732.698V168.854H723.869V167.477L728.422 162.888C730.122 161.152 730.515 160.49 730.515 159.479C730.515 158.29 729.621 157.359 728.252 157.359C726.776 157.359 725.658 158.37 725.658 159.748H723.761ZM739.094 169.096C736.518 169.096 734.639 167.522 734.523 165.267H736.437C736.58 166.547 737.672 167.423 739.112 167.423C740.749 167.423 741.876 166.287 741.876 164.677C741.876 163.085 740.74 161.948 739.13 161.948C737.976 161.948 737.055 162.44 736.509 163.389H734.756L735.391 155.946H743.084V157.637H737.01L736.616 161.725H736.661C737.242 160.857 738.316 160.365 739.586 160.365C742.055 160.365 743.835 162.154 743.835 164.623C743.835 167.262 741.885 169.096 739.094 169.096Z" fill="#95A1A6"/>
<rect x="695.42" y="93.6025" width="22.9008" height="22.9008" rx="11.4504" fill="white" stroke="black" stroke-width="4.58015"/>
</g>
<defs>
<clipPath id="clip0_9147_538">
<rect width="800" height="209" fill="white"/>
</clipPath>
</defs>
</svg>
