<?xml version="1.0" encoding="utf-8"?>
<!-- Uploaded to: SVG Repo, www.svgrepo.com, Generator: SVG Repo Mixer Tools -->
<svg width="800px" height="800px" viewBox="-73.28 0 326.607 326.607" xmlns="http://www.w3.org/2000/svg"><defs><style>.a{fill:#211715;}.b{fill:#ffda71;}.c{fill:#6dbf6b;}.d{fill:#f4b467;}</style></defs><path class="a" d="M88.692,181.422c.13,18.57-.007,37.143-.264,55.712q-.4,28.97-1.207,57.932-.4,14.615-.919,29.226c-.11,3.089,4.69,3.085,4.8,0q.965-27.061,1.534-54.135.638-29.182.851-58.374.1-15.18.005-30.361c-.022-3.088-4.822-3.095-4.8,0Z"/><path class="a" d="M69.073,262.325a77.2,77.2,0,0,1,18.374,11,2.471,2.471,0,0,0,3.394,0,2.418,2.418,0,0,0,0-3.394A81.319,81.319,0,0,0,71.5,258.18a2.48,2.48,0,0,0-3.283.861,2.417,2.417,0,0,0,.861,3.284Z"/><path class="a" d="M93.174,247.063a79.749,79.749,0,0,1,22.509-23.449,2.461,2.461,0,0,0,.861-3.284,2.423,2.423,0,0,0-3.284-.861A85.548,85.548,0,0,0,89.029,244.64c-1.639,2.629,2.512,5.041,4.145,2.423Z"/><path class="b" d="M101.04,129.8a51.259,51.259,0,0,0,7.989,26.85c4.005,6.239,10.1,11.321,18.018,13.015a16.049,16.049,0,0,0,10.392-.878,15.256,15.256,0,0,0,7.191-7.9,19.19,19.19,0,0,0,1.075-9.607c-1.286-10.631-8.536-20.593-17.019-26.552a40.888,40.888,0,0,0-10.144-5.138Z"/><path class="b" d="M78.984,54.878A51.268,51.268,0,0,0,71,28.028c-4.006-6.239-10.1-11.321-18.018-13.015a16.052,16.052,0,0,0-10.393.878,15.264,15.264,0,0,0-7.191,7.9A19.2,19.2,0,0,0,34.319,33.4C35.6,44.032,42.854,53.994,51.337,59.953a40.858,40.858,0,0,0,10.145,5.138Z"/><path class="c" d="M47.139,272.422a25.489,25.489,0,0,0,8.327-1.112,21.578,21.578,0,0,0,7.965-4.367,42.2,42.2,0,0,0,2.927-3.413c2.925-3.228,4.759-8.857,4.414-12.547a25.47,25.47,0,0,0-2.723-7.937,18.1,18.1,0,0,0-3.238-4.069,32.006,32.006,0,0,0-8.367-6.235,34.256,34.256,0,0,0-20.328-3.628c-13.718,1.9-25.578,11.832-31.7,24.253,7.274,3.011,13.781,7.569,20.6,11.5S39.271,272.162,47.139,272.422Z"/><path class="c" d="M136.882,231.75a24.721,24.721,0,0,1-13.036-1.812,18.959,18.959,0,0,1-6.992-5.259,22.658,22.658,0,0,1-4.584-7.537,21.429,21.429,0,0,1-.145-8.715,20.139,20.139,0,0,1,4.284-8.628,32.162,32.162,0,0,1,7.786-6.866,34.243,34.243,0,0,1,19.623-5.33c13.835.609,26.571,9.395,33.826,21.191-6.961,3.676-13.015,8.821-19.443,13.367S144.692,230.758,136.882,231.75Z"/><path class="b" d="M77.093,129.188A51.261,51.261,0,0,0,67.9,155.65c-.392,7.405,1.586,15.086,7.028,21.087a16.054,16.054,0,0,0,8.95,5.355,15.26,15.26,0,0,0,10.452-2.218,19.188,19.188,0,0,0,6.482-7.172c5.163-9.381,5.094-21.7,1.686-31.493a40.884,40.884,0,0,0-5.236-10.094Z"/><path class="b" d="M102.93,55.487a51.263,51.263,0,0,0,9.191-26.462c.391-7.4-1.586-15.086-7.029-21.087a16.051,16.051,0,0,0-8.95-5.355A15.262,15.262,0,0,0,85.69,4.8a19.185,19.185,0,0,0-6.481,7.172c-5.163,9.381-5.095,21.7-1.687,31.493A40.884,40.884,0,0,0,82.758,53.56Z"/><path class="b" d="M57.775,114.375A51.25,51.25,0,0,0,34.7,130.251c-4.7,5.733-7.658,13.093-6.828,21.152a16.051,16.051,0,0,0,4.039,9.616,15.262,15.262,0,0,0,9.735,4.405,19.2,19.2,0,0,0,9.47-1.939c9.717-4.5,16.959-14.467,20.014-24.374a40.913,40.913,0,0,0,1.761-11.234Z"/><path class="b" d="M122.248,70.3a51.25,51.25,0,0,0,23.08-15.876c4.7-5.733,7.658-13.093,6.828-21.152a16.045,16.045,0,0,0-4.039-9.616,15.261,15.261,0,0,0-9.734-4.4,19.21,19.21,0,0,0-9.471,1.939c-9.716,4.5-16.959,14.467-20.014,24.374a40.869,40.869,0,0,0-1.76,11.234Z"/><path class="b" d="M50.988,90.927a51.263,51.263,0,0,0-28-.931C15.8,91.818,9.054,95.984,4.936,102.961A16.055,16.055,0,0,0,2.476,113.1a15.261,15.261,0,0,0,5.217,9.324,19.192,19.192,0,0,0,8.771,4.064c10.491,2.149,22.237-1.57,30.577-7.728a40.848,40.848,0,0,0,8.088-7.994Z"/><path class="b" d="M129.035,93.748a51.267,51.267,0,0,0,28,.931c7.187-1.822,13.937-5.988,18.054-12.965a16.055,16.055,0,0,0,2.46-10.136,15.256,15.256,0,0,0-5.217-9.324,19.188,19.188,0,0,0-8.771-4.064c-10.491-2.148-22.236,1.57-30.577,7.728a40.866,40.866,0,0,0-8.087,7.994Z"/><path class="b" d="M59.3,68.218a51.262,51.262,0,0,0-22.08-17.24c-6.882-2.76-14.79-3.367-22.227-.152a16.041,16.041,0,0,0-7.956,6.743A15.256,15.256,0,0,0,5.764,68.177a19.186,19.186,0,0,0,4.7,8.449c7.213,7.915,18.9,11.826,29.263,11.761a40.9,40.9,0,0,0,11.244-1.7Z"/><path class="b" d="M120.721,116.457A51.266,51.266,0,0,0,142.8,133.7c6.882,2.76,14.791,3.367,22.227.152a16.047,16.047,0,0,0,7.957-6.743,15.262,15.262,0,0,0,1.274-10.608,19.2,19.2,0,0,0-4.7-8.449c-7.214-7.915-18.9-11.826-29.264-11.76a40.853,40.853,0,0,0-11.243,1.7Z"/><path class="d" d="M92.45,48.222C66.587,46.775,47.588,65.806,46.276,89.246c-1.468,26.227,15.783,45.31,41.264,46.736C114,137.464,132.3,120.2,133.762,94.143,135.083,70.543,118.223,49.665,92.45,48.222Z"/><path class="a" d="M47.139,274.822a27.447,27.447,0,0,0,14.119-3.4,18.045,18.045,0,0,0,5.115-4.119,41.219,41.219,0,0,0,3.8-4.968,20.3,20.3,0,0,0,3.02-11.063,19.616,19.616,0,0,0-1.572-6.126,21.778,21.778,0,0,0-3.067-5.6,36.36,36.36,0,0,0-24.161-12.9A38.272,38.272,0,0,0,20.3,232.371,48.775,48.775,0,0,0,2.342,252.156a2.451,2.451,0,0,0,1.434,3.525c7.357,3.082,13.889,7.79,20.807,11.7,6.958,3.928,14.472,7.118,22.556,7.445,3.089.125,3.083-4.676,0-4.8-7.675-.311-14.766-3.67-21.3-7.459-6.869-3.983-13.433-8.43-20.785-11.51l1.434,3.526c6.124-12.3,18.275-22.639,32.457-23.327a31.791,31.791,0,0,1,22.444,7.754,24.2,24.2,0,0,1,4.039,4.32,20.268,20.268,0,0,1,2.129,4.563,12.906,12.906,0,0,1-.2,9.252,14.74,14.74,0,0,1-2.581,4.566,24.575,24.575,0,0,1-4.353,4.573,22.242,22.242,0,0,1-13.28,3.742C44.049,269.948,44.05,274.748,47.139,274.822Z"/><path class="a" d="M126.405,217.091a30.679,30.679,0,0,1,6.521-2.828,49.143,49.143,0,0,1,7.55-1.778,2.409,2.409,0,0,0,1.676-2.953,2.472,2.472,0,0,0-2.952-1.676,44.173,44.173,0,0,0-15.218,5.09,2.4,2.4,0,1,0,2.423,4.145Z"/><path class="a" d="M136.882,229.35a23.008,23.008,0,0,1-11.825-1.484,19.5,19.5,0,0,1-8.088-6.906,15.013,15.013,0,0,1-2.475-4.777,15.741,15.741,0,0,1-.3-4.713,17.159,17.159,0,0,1,4.189-10.31,31.8,31.8,0,0,1,20.285-10.968,34.525,34.525,0,0,1,20.233,4.071,44.264,44.264,0,0,1,16.672,15.742l.861-3.284c-7.034,3.753-13.127,8.919-19.619,13.491-5.952,4.192-12.585,8.151-19.932,9.138a2.481,2.481,0,0,0-2.4,2.4c0,1.163,1.107,2.574,2.4,2.4,7.985-1.073,15.094-4.759,21.65-9.3,6.763-4.685,13.034-10.094,20.324-13.983a2.426,2.426,0,0,0,.861-3.284c-8.366-13.475-23.861-23.747-40.2-22.279A36.679,36.679,0,0,0,115.7,196.946a22.861,22.861,0,0,0-6.078,12.118c-.556,4.175-.283,8.272,1.75,12.023a25.365,25.365,0,0,0,10.17,10.4,26.707,26.707,0,0,0,15.34,2.663,2.474,2.474,0,0,0,2.4-2.4A2.415,2.415,0,0,0,136.882,229.35Z"/><path class="a" d="M98.952,134.942c.141,1.157.3,2.313.494,3.462q.142.82.31,1.634c.129.625.253,1.029.319,1.313a50.058,50.058,0,0,0,1.707,5.892,51.266,51.266,0,0,0,5.783,11.522,31.444,31.444,0,0,0,17.5,12.886c4.03,1.082,8.47,1.33,12.4-.278a17.216,17.216,0,0,0,8.607-7.919c4-7.612,2.026-16.9-1.659-24.226a45.074,45.074,0,0,0-19.639-19.619c-2.747-1.4-5.179,2.741-2.423,4.145a40.79,40.79,0,0,1,15.987,14.49c3.562,5.631,6.376,13.08,4.7,19.8a13.239,13.239,0,0,1-5.263,7.78,12.883,12.883,0,0,1-9.884,1.565,25.988,25.988,0,0,1-15.323-9.858,42.99,42.99,0,0,1-5.75-10.5c-.781-2.012-1.352-4.062-1.944-6.134-.126-.441.083-.521-.075-.173q.078.6,0-.025a2.92,2.92,0,0,0-.1-.55c-.124-.621-.279-1.235-.4-1.857-.218-1.111-.4-2.229-.539-3.354a2.475,2.475,0,0,0-2.4-2.4,2.413,2.413,0,0,0-2.4,2.4Z"/><path class="a" d="M81.042,49.472a51.37,51.37,0,0,0-2.8-12.041,51.123,51.123,0,0,0-5.782-11.523A31.434,31.434,0,0,0,54.766,12.973a19.524,19.524,0,0,0-12.413.416,17.091,17.091,0,0,0-8.573,8.168C29.993,29.2,32,38.353,35.7,45.628A45.082,45.082,0,0,0,55.41,65.144C58.162,66.532,60.6,62.392,57.833,61A40.8,40.8,0,0,1,41.909,46.777c-3.647-5.64-6.573-13.131-4.971-19.926a13.343,13.343,0,0,1,5.151-7.891,12.763,12.763,0,0,1,9.852-1.715A26,26,0,0,1,67.424,27.1a42.711,42.711,0,0,1,5.787,10.541c.78,2.012,1.352,4.063,1.943,6.134.126.441-.083.521.076.174q-.079-.6,0,.025a2.753,2.753,0,0,0,.095.54c.118.593.267,1.181.385,1.776.21,1.055.391,2.117.527,3.185a2.478,2.478,0,0,0,2.4,2.4,2.414,2.414,0,0,0,2.4-2.4Z"/><path class="a" d="M72.329,132.26c-7.835,14.033-10.787,33.956,1.287,46.586A17.991,17.991,0,0,0,84.3,184.558a17.486,17.486,0,0,0,11.927-3.07c6.712-4.716,9.806-13.031,10.766-20.9a45.35,45.35,0,0,0-.556-13.886q-.29-1.529-.684-3.037-.234-.9-.509-1.785c-.09-.288-.17-.6-.283-.876-.176-.429-.292-.466-.132.015-.436-1.313-.82-2.6-1.386-3.888-.465-1.058-.98-2.089-1.532-3.1-1.476-2.714-5.622-.294-4.145,2.423.846,1.556,1.455,3.18,2.195,4.778.008.017-.164-.66.111.12.036.1.075.36.112.5.14.515.343,1.019.5,1.53.3.967.546,1.945.772,2.93a41.351,41.351,0,0,1,1.034,10.121c-.135,6.575-1.87,13.981-6.472,18.927a13.723,13.723,0,0,1-8.742,4.479,11.949,11.949,0,0,1-9.044-3.2c-5.049-4.5-7.683-11.183-7.952-17.858a46.578,46.578,0,0,1,6.193-24.1c1.508-2.7-2.637-5.123-4.145-2.423Z"/><path class="a" d="M107.864,52.133c7.7-14.067,10.568-33.9-1.585-46.433A17.913,17.913,0,0,0,95.721.115a17.525,17.525,0,0,0-11.927,3.07c-6.66,4.67-9.748,12.9-10.74,20.691a45.292,45.292,0,0,0,.455,13.689c.18,1,.4,2,.643,2.988q.224.9.49,1.8c.088.3.18.589.274.882l.144.436c.128.513.174.582.14.21l-.008-.224.085.638a8.643,8.643,0,0,0,.4,1.073c.236.608.488,1.211.747,1.81.468,1.085.983,2.146,1.537,3.19,1.449,2.73,5.594.307,4.145-2.423a35.159,35.159,0,0,1-3.558-9.646,41.351,41.351,0,0,1-1.008-10.26c.167-6.572,1.947-13.964,6.6-18.861a13.692,13.692,0,0,1,8.607-4.335,11.912,11.912,0,0,1,9.044,3.2A25.2,25.2,0,0,1,109.734,25.7c.38,8.289-2.058,16.784-6.015,24.011-1.484,2.711,2.66,5.136,4.145,2.423Z"/><path class="a" d="M51.47,114.309C36.791,121.2,22.975,135.773,25.7,153.154a17.093,17.093,0,0,0,5.67,10.637,18.115,18.115,0,0,0,11.388,4.072c8.156.031,15.806-5.16,21.048-11.045a45.635,45.635,0,0,0,7.2-10.865,47.586,47.586,0,0,0,2.429-6.2,25.216,25.216,0,0,0,1.476-6.978c0-3.089-4.8-3.094-4.8,0,0-.554-.063.389-.092.568-.079.482-.168.964-.265,1.443q-.31,1.526-.746,3.022a39.811,39.811,0,0,1-1.594,4.5,42.756,42.756,0,0,1-5.152,8.875c-3.983,5.281-9.707,10.071-16.292,11.536a13.744,13.744,0,0,1-9.733-1.366,11.764,11.764,0,0,1-5.579-7.79c-1.659-6.884.488-14.176,4.429-19.879,4.6-6.661,11.536-11.822,18.805-15.232a2.421,2.421,0,0,0,.861-3.284,2.455,2.455,0,0,0-3.284-.861Z"/><path class="a" d="M128.493,70.394c14.688-6.862,28.4-21.337,25.858-38.686a17.223,17.223,0,0,0-5.394-10.57,18.088,18.088,0,0,0-11.469-4.326c-8.1-.141-15.748,4.967-21.008,10.756A45.519,45.519,0,0,0,109.1,38.551a47.316,47.316,0,0,0-2.4,6.019,24.915,24.915,0,0,0-1.546,7.042c0,3.088,4.8,3.093,4.8,0,0,.535.076-.43.105-.6q.129-.744.288-1.482.336-1.568.8-3.1a37.507,37.507,0,0,1,1.616-4.409A42.772,42.772,0,0,1,118,33.181c4.028-5.188,9.7-9.892,16.262-11.275a13.725,13.725,0,0,1,9.7,1.514,11.824,11.824,0,0,1,5.453,7.88c1.575,6.832-.571,14.038-4.474,19.687-4.615,6.679-11.572,11.855-18.866,15.262a2.421,2.421,0,0,0-.861,3.284,2.454,2.454,0,0,0,3.284.861Z"/><path class="a" d="M46.89,87.337C31.4,84.023,11.98,86.8,3.064,101.409A18.627,18.627,0,0,0,.186,113.935,17.351,17.351,0,0,0,5.855,124c6.348,5.573,15.539,6.244,23.533,4.89A44.748,44.748,0,0,0,53.4,116.4c2.173-2.2-1.219-5.6-3.394-3.394A40.169,40.169,0,0,1,31.92,123.42c-6.318,1.707-13.972,2.167-19.937-.987a13.647,13.647,0,0,1-6.481-7.1,12.2,12.2,0,0,1,.822-9.917A25.378,25.378,0,0,1,20.311,93.333a46.458,46.458,0,0,1,25.3-1.367c3.012.645,4.3-3.982,1.276-4.629Z"/><path class="a" d="M129.979,71.709A40.3,40.3,0,0,1,148.1,61.255c6.322-1.71,13.969-2.167,19.938.99a13.623,13.623,0,0,1,6.48,7.1,12.194,12.194,0,0,1-.822,9.913,25.365,25.365,0,0,1-13.986,12.087,46.653,46.653,0,0,1-25.373,1.363c-3.013-.642-4.3,3.984-1.276,4.629,15.517,3.312,34.962.57,43.9-14.072a18.606,18.606,0,0,0,2.878-12.516,17.34,17.34,0,0,0-5.668-10.071c-6.353-5.568-15.538-6.245-23.534-4.888a44.825,44.825,0,0,0-24.05,12.526c-2.174,2.2,1.218,5.595,3.394,3.394Z"/><path class="a" d="M57.559,62.285A52.074,52.074,0,0,0,35.439,47.8c-7.978-2.52-17.384-2.107-24.568,2.487a16.668,16.668,0,0,0-7.236,9.3,18.249,18.249,0,0,0,.831,12.223c2.971,6.958,9.671,12.069,16.444,15.031a45.777,45.777,0,0,0,26.11,3.249A2.42,2.42,0,0,0,48.7,87.134a2.456,2.456,0,0,0-2.952-1.677A40.323,40.323,0,0,1,26,83.71c-5.943-2.029-11.97-5.641-15.557-10.929-3.755-5.538-3.817-13.281,1.8-17.63C17.789,50.863,25.708,50.24,32.3,51.9c8.416,2.12,16.043,7.457,21.863,13.777,2.1,2.277,5.484-1.124,3.394-3.394Z"/><path class="a" d="M122.575,122.509a52.084,52.084,0,0,0,22.009,14.364c7.981,2.52,17.377,2.1,24.569-2.481a16.61,16.61,0,0,0,7.29-9.5,18.354,18.354,0,0,0-.926-12.117c-3.017-7.039-9.894-12.153-16.759-15.093a45.477,45.477,0,0,0-25.864-3.066,2.423,2.423,0,0,0-1.677,2.953,2.454,2.454,0,0,0,2.953,1.676,40.029,40.029,0,0,1,19.667,1.655c5.891,1.982,11.866,5.5,15.511,10.663,3.9,5.518,4.2,13.342-1.427,17.845-5.51,4.409-13.577,5.032-20.2,3.363-8.37-2.109-15.941-7.392-21.752-13.657-2.1-2.27-5.494,1.13-3.394,3.394Z"/><path class="a" d="M92.45,45.822a46.735,46.735,0,0,0-28.525,7.57,45.724,45.724,0,0,0-17.2,21.96c-6.571,17.569-2.3,39.5,12.118,51.946,14.38,12.408,36.915,14.727,53.773,6.134,16.834-8.582,25.286-28.245,23.369-46.6a46.269,46.269,0,0,0-11.026-25.658A45.2,45.2,0,0,0,100.2,46.834a53.94,53.94,0,0,0-7.752-1.012c-3.085-.184-3.074,4.617,0,4.8a41.923,41.923,0,0,1,24.6,9.493,40.694,40.694,0,0,1,13.157,21.279c3.971,16.029-1.5,35.3-15.177,44.973-13.809,9.767-34.181,9.728-48.417.757C52.045,117.94,46,99.562,49.5,83A41.385,41.385,0,0,1,61.853,61.1a40.331,40.331,0,0,1,23.4-10.346,49.35,49.35,0,0,1,7.193-.13C95.538,50.783,95.529,45.983,92.45,45.822Z"/><path class="a" d="M107.636,71.914c-3.876-4.395-9.6-6.094-15.271-6.59a26.941,26.941,0,0,0-14.913,3.067c-9.122,4.857-14.346,14.734-14.109,24.95a25.426,25.426,0,0,0,14.573,22.713c8.776,4.028,20.026,4.057,28.046-1.762a26.165,26.165,0,0,0,9.306-12.791c2.188-6.319,2.506-13.541-.468-19.643A2.422,2.422,0,0,0,111.517,81a2.449,2.449,0,0,0-.861,3.284c2.209,4.534,1.774,9.953.391,14.668a21.815,21.815,0,0,1-6.033,9.967c-5.971,5.512-14.911,6.308-22.491,3.829A20.627,20.627,0,0,1,68.342,95.99c-1.15-8.118,1.968-16.7,8.632-21.635a22.119,22.119,0,0,1,13.24-4.329c5.1.018,10.555,1.343,14.028,5.283,2.047,2.321,5.431-1.084,3.394-3.395Z"/></svg>