<svg width="30" height="30" viewBox="0 0 30 30" fill="none" xmlns="http://www.w3.org/2000/svg">
<g clip-path="url(#clip0_6699_251)">
<rect x="3" y="9" width="26" height="19" fill="white"/>
<path d="M1.40625 0C0.6275 0 0 0.6275 0 1.40625V28.5938C0 29.3725 0.6275 30 1.40625 30H28.5938C29.3725 30 30 29.3725 30 28.5938V1.40625C30 0.6275 29.3725 0 28.5938 0H1.40625ZM23.11 12.1875C23.875 12.1875 24.5525 12.2338 25.1437 12.3263C25.7014 12.4098 26.2486 12.5523 26.7762 12.7513V15.8238C26.523 15.6486 26.2539 15.4975 25.9725 15.3725C25.6823 15.2419 25.3827 15.1333 25.0763 15.0475C24.4957 14.8857 23.8964 14.8017 23.2938 14.7975C22.9188 14.7975 22.5775 14.8325 22.27 14.905C21.9959 14.9636 21.733 15.0657 21.4913 15.2075C21.2788 15.3375 21.1162 15.4937 21 15.675C20.8831 15.8577 20.8222 16.0706 20.825 16.2875C20.825 16.5325 20.8912 16.7538 21.02 16.9488C21.15 17.1438 21.335 17.3288 21.5738 17.5038C21.8125 17.6788 22.1025 17.8488 22.4437 18.0163C22.785 18.185 23.1713 18.3588 23.6013 18.5363C24.1888 18.7825 24.7162 19.045 25.1837 19.3212C25.6512 19.5987 26.0525 19.9125 26.3875 20.2625C26.7225 20.6112 26.9775 21.01 27.155 21.4587C27.3325 21.9075 27.4225 22.4288 27.4225 23.025C27.4225 23.8463 27.2663 24.5375 26.9563 25.095C26.6534 25.6448 26.2187 26.1109 25.6912 26.4512C25.1227 26.8117 24.4926 27.0643 23.8325 27.1962C23.125 27.3462 22.3787 27.4213 21.595 27.4213C20.8236 27.4246 20.0536 27.356 19.295 27.2163C18.6387 27.1027 18.0021 26.8952 17.405 26.6V23.3125C18.5347 24.2739 19.9678 24.8052 21.4512 24.8125C21.8675 24.8125 22.2313 24.775 22.5413 24.7C22.8525 24.625 23.1113 24.52 23.32 24.3875C23.5275 24.2525 23.6825 24.095 23.7862 23.9125C23.9009 23.7 23.9531 23.4594 23.9367 23.2185C23.9203 22.9776 23.8361 22.7463 23.6937 22.5513C23.508 22.3055 23.2809 22.094 23.0225 21.9263C22.7021 21.7138 22.3647 21.5282 22.0138 21.3713C21.5978 21.1813 21.1781 20.9996 20.755 20.8262C19.6075 20.3475 18.7525 19.7612 18.1887 19.07C17.6262 18.3787 17.3438 17.5425 17.3438 16.5638C17.3438 15.7963 17.4975 15.1375 17.805 14.5862C18.1125 14.035 18.53 13.5812 19.06 13.225C19.6206 12.8552 20.2429 12.5889 20.8975 12.4388C21.6225 12.2678 22.3652 12.1835 23.11 12.1875ZM4.21875 12.4225H16.1725V15.13H11.8825V27.1875H8.48625V15.13H4.21875V12.4225Z" fill="#2F76C4"/>
</g>
<defs>
<clipPath id="clip0_6699_251">
<rect width="30" height="30" fill="white"/>
</clipPath>
</defs>
</svg>
